<svg xmlns="http://www.w3.org/2000/svg" xmlns:xlink="http://www.w3.org/1999/xlink" width="179" height="91" viewBox="0 0 179 91"><defs><path id="6zjxb" d="M563.585 5800.338h-6.003v-.696h.93c.468 0 .7-.143.7-.448 0-.125-.072-.358-.197-.68l-.824-2.147h-4.696l-.646 1.736c-.125.304-.197.59-.197.858 0 .448.287.68.86.68h.681v.698H550v-.697h.233c.734 0 1.307-.519 1.72-1.54l4.285-10.932h1.325l4.446 11.344c.34.858.734 1.128 1.326 1.128h.25zm-7.742-9.968l-2.008 5.177h4.033z"/><path id="6zjxc" d="M581.261 5795.363l-.359 4.974H570.31v-.697l7.349-11.523h-3.89c-.716 0-1.255.34-1.614.788-.16.232-.322.535-.465.912-.269.77-.376 1.324-.52 2.307h-.681l.376-4.704h10.306v.697l-7.348 11.523h4.48c.592 0 1.059-.32 1.38-.948.341-.626.629-1.735.879-3.329z"/><path id="6zjxd" d="M588.62 5800.339v-.697h.735c.663 0 .931-.216.931-1.128v-9.27c0-.912-.268-1.126-.931-1.126h-.735v-.698h10.54l.285 4.312h-.699c-.233-1.378-.59-2.326-.877-2.809a1.385 1.385 0 0 0-.556-.555c-.448-.233-.682-.25-1.273-.25h-1.972c-.627 0-.788.179-.788 1.127v4.044h1.326c.556 0 .968-.161 1.237-.502.287-.339.43-1.019.448-2.04h.68v5.817h-.68c-.018-1.02-.16-1.7-.448-2.04-.269-.341-.68-.52-1.237-.52h-1.326v4.51c0 .912.268 1.128.933 1.128h1.953c.484 0 .627 0 .986-.054.376-.072.52-.233.806-.466.485-.537.878-1.575 1.219-3.668h.699l-.322 4.885z"/><path id="6zjxe" d="M620.47 5797.653c-.143 2.149-.843 2.864-2.33 2.864-1.631 0-2.313-.788-2.545-2.38-.072-.447-.126-.786-.18-1.02-.072-.5-.269-1.36-.483-1.735-.322-.698-.79-1.2-1.614-1.2h-1.058v4.33c0 .913.27 1.128.933 1.128h.735v.697H607.6v-.697h.736c.662 0 .931-.215.931-1.127v-9.268c0-.913-.269-1.128-.93-1.128h-.737v-.697h6.955c2.85 0 4.642 1.145 4.642 3.345 0 1.736-1.488 2.97-3.944 3.185 1.489.269 2.437 1.198 2.886 2.791.073.27.163.664.252 1.182.197 1.02.322 1.36.627 1.36.448 0 .663-.394.753-1.63zm-7.277-9.537c-.663 0-.933.216-.933 1.127v4.237h1.579c1.504 0 2.347-1.001 2.347-2.717 0-1.591-.771-2.647-2.08-2.647z"/><path id="6zjxf" d="M638.363 5799.39c-.842.626-1.952.947-3.333.947h-7.17v-.697h.736c.662 0 .932-.215.932-1.127v-9.268c0-.913-.27-1.128-.932-1.128h-.736v-.697h6.542c2.94 0 4.606 1.108 4.606 3.202 0 1.45-1.29 2.63-3.35 2.934 2.562.216 3.978 1.432 3.978 3.204 0 1.126-.43 2.004-1.273 2.63m-4.535-11.274h-.54c-.574 0-.772.233-.772.968v4.228h1.635c1.276 0 1.85-1.165 1.85-2.597 0-1.74-.718-2.599-2.173-2.599m.395 5.9h-1.707v4.496c0 .913.27 1.129.935 1.129h1.148c.647 0 1.15-.269 1.49-.824.359-.555.54-1.254.54-2.06 0-1.594-.844-2.74-2.406-2.74"/><path id="6zjxg" d="M659.655 5800.338h-6.004v-.696h.93c.468 0 .701-.143.701-.448 0-.125-.072-.358-.197-.68l-.824-2.147h-4.696l-.646 1.736c-.125.304-.197.59-.197.858 0 .448.287.68.86.68h.681v.698h-4.193v-.697h.233c.734 0 1.307-.519 1.72-1.54l4.285-10.932h1.325l4.446 11.344c.34.858.734 1.128 1.326 1.128h.25zm-7.742-9.968l-2.008 5.177h4.033z"/><path id="6zjxh" d="M671.22 5798.514c0 .912.268 1.128.933 1.128h.734v.697h-6.327v-.697h.735c.663 0 .931-.216.931-1.128v-9.27c0-.912-.268-1.126-.931-1.126h-.735v-.698h6.327v.698h-.734c-.665 0-.933.214-.933 1.127z"/><path id="6zjxi" d="M687.645 5797.045c0 2.453-1.775 3.562-4.499 3.562-1.058 0-1.864-.305-2.455-.895-.574-.608-.861-1.325-.861-2.129 0-1.075.59-2.058 1.613-2.058.735 0 1.344.626 1.344 1.359 0 .77-.609 1.379-1.344 1.379-.34 0-.555-.054-.646-.161.054.41.27.787.665 1.145.411.34.823.518 1.271.518 1.13 0 1.936-.805 1.936-2.72v-7.8c0-.913-.27-1.128-.932-1.128h-1.021v-.697h6.614v.697h-.737c-.662 0-.948.215-.948 1.128z"/><path id="6zjxj" d="M708.617 5800.338h-6.005v-.696h.931c.467 0 .7-.143.7-.448 0-.125-.073-.358-.198-.68l-.824-2.147h-4.696l-.646 1.736c-.125.304-.197.59-.197.858 0 .448.287.68.86.68h.681v.698h-4.193v-.697h.233c.734 0 1.307-.519 1.72-1.54l4.285-10.932h1.325l4.446 11.344c.34.858.734 1.128 1.326 1.128h.252zm-7.744-9.968l-2.008 5.177h4.033z"/><path id="6zjxa" d="M715.45 5787.42h13.245v12.919H715.45z"/><path id="6zjxl" d="M727.01 5800.339h-.823l-8.084-9.877h-.072v7.784c0 .912.43 1.396 1.074 1.396h.61v.697h-4.265v-.697h.61c.644 0 1.057-.467 1.057-1.396v-9.001c0-.913-.27-1.127-.932-1.127h-.735v-.698h3.925l6.65 8.356h.09v-6.262c0-.913-.43-1.396-1.075-1.396h-.61v-.698h4.265v.698h-.608c-.646 0-1.077.483-1.077 1.396z"/><path id="6zjxm" d="M607.29 5821.799v-.697h.735c.663 0 .931-.216.931-1.128v-9.27c0-.912-.268-1.126-.931-1.126h-.735v-.698h10.54l.285 4.312h-.699c-.233-1.377-.59-2.326-.877-2.809a1.385 1.385 0 0 0-.556-.555c-.448-.233-.682-.25-1.273-.25h-1.972c-.627 0-.788.179-.788 1.127v4.044h1.326c.556 0 .968-.161 1.237-.501.287-.34.43-1.02.448-2.04h.682v5.816h-.682c-.018-1.02-.16-1.7-.448-2.04-.269-.34-.68-.52-1.237-.52h-1.326v4.51c0 .912.268 1.128.933 1.128h1.002v.697z"/><path id="6zjxn" d="M630.04 5819.974c0 .912.27 1.128.933 1.128h.734v.697h-6.327v-.697h.735c.663 0 .931-.216.931-1.128v-9.27c0-.912-.268-1.126-.931-1.126h-.735v-.698h6.327v.698h-.734c-.664 0-.933.214-.933 1.127z"/><path id="6zjxo" d="M647.872 5820.994c-1.057.716-2.294 1.074-3.675 1.074-1.612 0-2.903-.501-3.87-1.503l-.449 1.485h-.555l-.323-5.154h.663c.591 3.382 2.94 4.457 4.57 4.457 1.632 0 2.798-.681 2.798-2.023 0-.644-.324-1.182-.682-1.522-.18-.16-.449-.321-.808-.482-.358-.16-.662-.287-.914-.376-.233-.09-.59-.197-1.057-.34-1.003-.304-1.505-.483-2.31-.913-1.113-.608-1.704-1.52-1.777-3.095 0-2.559 1.776-3.972 4.48-3.972 1.526 0 2.744.465 3.641 1.396l.465-1.379h.555l.216 4.741h-.7c-.287-1.573-.966-2.718-1.828-3.273-.841-.573-1.577-.787-2.348-.787-1.217 0-2.24.715-2.24 2.057 0 .627.358 1.145.717 1.485.198.161.484.323.86.483l.933.376 1.094.323c1.218.357 1.917.643 2.795 1.234.879.59 1.345 1.504 1.345 2.72 0 1.271-.538 2.272-1.596 2.988"/><path id="6zjxp" d="M666.765 5815.536h-5.145v4.438c0 .912.27 1.126.933 1.126h.734v.699h-6.327v-.699h.736c.662 0 .931-.214.931-1.126v-9.27c0-.912-.269-1.127-.93-1.127h-.737v-.697h6.327v.697h-.734c-.664 0-.933.215-.933 1.128v3.847h5.145v-3.847c0-.913-.268-1.128-.933-1.128h-.752v-.697h6.326v.697h-.752c-.664 0-.914.215-.914 1.128v9.269c0 .912.25 1.126.914 1.126h.752v.699h-6.326v-.699h.752c.665 0 .933-.214.933-1.126z"/><path id="6zjxq" d="M630.81 5776.403a3.929 3.929 0 0 0 2.525 2.33 3.917 3.917 0 0 0 .28-3.422 3.932 3.932 0 0 0-2.528-2.331 3.919 3.919 0 0 0-.277 3.423"/><path id="6zjxr" d="M634.292 5775.65a3.935 3.935 0 0 0 3.438.116 3.919 3.919 0 0 0-2.032-2.772 3.943 3.943 0 0 0-3.438-.115 3.927 3.927 0 0 0 2.032 2.772"/><path id="6zjxs" d="M640.806 5767.156a.45.45 0 1 1-.899 0 .45.45 0 0 1 .9 0"/><path id="6zjxt" d="M632.88 5760.181h3.965l4.44-4.173s-1.018-1.7-5.332-.85c-.762.15-1.493.384-2.193.68zm4.652-4.477a.45.45 0 0 1 .45.449.45.45 0 0 1-.9 0c0-.248.201-.45.45-.45z"/><path id="6zjxu" d="M636.394 5760.61h-4.035l.928-4.56c-3.421 1.645-5.827 4.976-5.827 9 0 3.78 2.099 7.069 5.197 8.773a9.955 9.955 0 0 1-1.067-4.493c0-3.346 2.025-5.795 4.173-8.126z"/><path id="6zjxv" d="M635.7 5762.02l-.453 4.48-1.927-1.672s1.494-2.356 2.38-2.808"/><path id="6zjxw" d="M647.893 5748.33a3.929 3.929 0 0 0-2.526-2.33 3.924 3.924 0 0 0 2.249 5.754 3.919 3.919 0 0 0 .277-3.424"/><path id="6zjxx" d="M644.407 5749.085a3.937 3.937 0 0 0-3.437-.115 3.922 3.922 0 0 0 2.03 2.772 3.943 3.943 0 0 0 3.44.114 3.924 3.924 0 0 0-2.033-2.771"/><path id="6zjxy" d="M646.047 5750.91a9.939 9.939 0 0 1 1.068 4.491c0 3.348-2.025 5.797-4.174 8.128l-.631.593h4.035l-.927 4.56c3.422-1.643 5.826-4.977 5.826-9 0-3.78-2.099-7.068-5.197-8.772"/><path id="6zjxz" d="M645.817 5764.55h-3.965l-4.442 4.173s1.02 1.7 5.333.85a11.16 11.16 0 0 0 2.192-.68zm-4.652 4.477a.45.45 0 0 1-.453-.449.45.45 0 0 1 .453-.448c.25 0 .454.202.454.448 0 .249-.204.45-.454.45z"/><path id="6zjxA" d="M642.99 5762.71l.453-4.48 1.927 1.67s-1.494 2.357-2.38 2.81"/><path id="6zjxB" d="M629.748 5836.667h-1.998v-.176h.329c.203 0 .271-.064.271-.347v-3.503c0-.284-.075-.354-.271-.354h-.329v-.177h3.47l.095 1.503h-.17c-.075-.512-.171-.846-.253-1.03a.41.41 0 0 0-.164-.201c-.134-.095-.202-.095-.405-.095h-1c-.181 0-.24.05-.24.354v1.571h.657c.203 0 .342-.057.413-.17.075-.12.112-.374.12-.763h.17v2.05h-.17c-.008-.391-.045-.643-.12-.756-.071-.121-.21-.179-.413-.179h-.656v1.75c0 .283.07.347.271.347h.393z"/><path id="6zjxC" d="M636.95 5836.667h-1.777v-.177h.341c.146 0 .216-.043.216-.138a.65.65 0 0 0-.058-.208l-.354-.94h-1.814l-.31.838a.558.558 0 0 0-.058.241c0 .138.09.207.267.207h.278v.177h-1.341v-.177h.083c.253 0 .436-.152.544-.448l1.535-4.082h.33l1.573 4.184c.096.234.24.346.436.346h.109zm-2.542-3.914l-.822 2.249h1.65z"/><path id="6zjxD" d="M642.505 5835.834c-.05.656-.283.896-.707.896-.487 0-.659-.322-.766-.985-.133-.8-.38-1.274-.943-1.274h-.504v1.673c0 .283.068.346.271.346h.329v.177h-1.935v-.177h.33c.202 0 .271-.063.271-.346v-3.503c0-.284-.076-.354-.271-.354h-.33v-.177h2.257c.461 0 .834.101 1.12.303.283.202.43.492.43.865 0 .624-.52 1.08-1.41 1.136.536.101.878.435 1.017 1.004.044.17.082.436.108.58.045.24.107.417.234.417.17 0 .278-.196.323-.58zm-2.651-3.547c-.197 0-.272.07-.272.354v1.646h.69c.661 0 1.048-.372 1.048-1.009 0-.613-.368-.99-.92-.99z"/><path id="6zjxE" d="M649.943 5836.667h-1.936v-.176h.336c.202 0 .266-.064.266-.347v-3.857h-.038l-1.682 4.38h-.17l-1.662-4.38h-.033v3.794c0 .271.1.41.304.41h.303v.176h-1.441v-.176h.302c.203 0 .304-.139.304-.41v-3.44c0-.284-.075-.354-.271-.354h-.335v-.177h1.574l1.31 3.402 1.314-3.402h1.555v.177h-.336c-.202 0-.27.083-.27.354v3.503c0 .283.068.347.27.347h.336z"/><clipPath id="6zjxk"><use xlink:href="#6zjxa"/></clipPath></defs><g><g transform="translate(-550 -5746)"><g><use fill="#dfba68" xlink:href="#6zjxb"/></g><g><use fill="#dfba68" xlink:href="#6zjxc"/></g><g><use fill="#dfba68" xlink:href="#6zjxd"/></g><g><use fill="#dfba68" xlink:href="#6zjxe"/></g><g><use fill="#dfba68" xlink:href="#6zjxf"/></g><g><use fill="#dfba68" xlink:href="#6zjxg"/></g><g><use fill="#dfba68" xlink:href="#6zjxh"/></g><g><use fill="#dfba68" xlink:href="#6zjxi"/></g><g><use fill="#dfba68" xlink:href="#6zjxj"/></g><g><g/><g clip-path="url(#6zjxk)"><use fill="#dfba68" xlink:href="#6zjxl"/></g></g><g><use fill="#dfba68" xlink:href="#6zjxm"/></g><g><use fill="#dfba68" xlink:href="#6zjxn"/></g><g><use fill="#dfba68" xlink:href="#6zjxo"/></g><g><use fill="#dfba68" xlink:href="#6zjxp"/></g><g><use fill="#dfba68" xlink:href="#6zjxq"/></g><g><use fill="#dfba68" xlink:href="#6zjxr"/></g><g><use fill="#dfba68" xlink:href="#6zjxs"/></g><g><use fill="#dfba68" xlink:href="#6zjxt"/></g><g><use fill="#dfba68" xlink:href="#6zjxu"/></g><g><use fill="#dfba68" xlink:href="#6zjxv"/></g><g><use fill="#dfba68" xlink:href="#6zjxw"/></g><g><use fill="#dfba68" xlink:href="#6zjxx"/></g><g><use fill="#dfba68" xlink:href="#6zjxy"/></g><g><use fill="#dfba68" xlink:href="#6zjxz"/></g><g><use fill="#dfba68" xlink:href="#6zjxA"/></g><g><use fill="#dfba68" xlink:href="#6zjxB"/></g><g><use fill="#dfba68" xlink:href="#6zjxC"/></g><g><use fill="#dfba68" xlink:href="#6zjxD"/></g><g><use fill="#dfba68" xlink:href="#6zjxE"/></g></g></g></svg>