<svg xmlns="http://www.w3.org/2000/svg" xmlns:xlink="http://www.w3.org/1999/xlink" width="24" height="24" viewBox="0 0 24 24"><defs><path id="jvwha" d="M904.996 5944.207c3.203 0 3.583.012 4.848.07 1.17.053 1.804.248 2.227.412.56.217.96.477 1.38.896.42.419.68.818.897 1.376.164.422.36 1.056.413 2.224.058 1.262.07 1.64.07 4.837s-.012 3.576-.07 4.838c-.053 1.168-.249 1.802-.413 2.223a3.71 3.71 0 0 1-.897 1.377c-.42.42-.82.678-1.38.896-.423.164-1.058.359-2.227.412-1.265.058-1.644.07-4.848.07-3.203 0-3.583-.012-4.847-.07-1.17-.053-1.805-.248-2.228-.412a3.717 3.717 0 0 1-1.38-.896 3.71 3.71 0 0 1-.897-1.377c-.164-.421-.36-1.055-.413-2.223-.057-1.262-.07-1.64-.07-4.838 0-3.196.013-3.575.07-4.837.054-1.168.25-1.802.413-2.224.218-.558.478-.957.898-1.376.42-.42.82-.679 1.38-.896.422-.164 1.057-.359 2.227-.412 1.265-.058 1.644-.07 4.847-.07m0-2.157c-3.258 0-3.666.014-4.946.072-1.277.058-2.149.26-2.912.557a5.881 5.881 0 0 0-2.125 1.38 5.868 5.868 0 0 0-1.383 2.121c-.297.762-.5 1.632-.558 2.906-.058 1.277-.072 1.685-.072 4.936 0 3.252.014 3.66.072 4.937.058 1.274.261 2.144.558 2.906a5.867 5.867 0 0 0 1.383 2.12 5.882 5.882 0 0 0 2.125 1.381c.763.296 1.635.499 2.912.557 1.28.058 1.688.072 4.946.072s3.667-.014 4.946-.072c1.277-.058 2.15-.26 2.912-.557a5.882 5.882 0 0 0 2.125-1.38 5.867 5.867 0 0 0 1.384-2.121c.296-.762.499-1.632.557-2.906.059-1.277.072-1.685.072-4.937 0-3.251-.013-3.659-.072-4.936-.058-1.274-.26-2.144-.557-2.906a5.868 5.868 0 0 0-1.384-2.12 5.88 5.88 0 0 0-2.125-1.381c-.763-.296-1.635-.499-2.912-.557-1.28-.058-1.688-.072-4.946-.072"/><path id="jvwhb" d="M905 5947.87c-3.402 0-6.16 2.753-6.16 6.148 0 3.395 2.758 6.148 6.16 6.148s6.16-2.753 6.16-6.148c0-3.395-2.758-6.148-6.16-6.148m0 10.139a3.995 3.995 0 0 1-3.999-3.991c0-2.204 1.79-3.99 4-3.99a3.995 3.995 0 0 1 3.998 3.99c0 2.204-1.79 3.99-3.999 3.99"/><path id="jvwhc" d="M912.84 5947.627c0 .793-.645 1.436-1.44 1.436-.795 0-1.44-.643-1.44-1.436 0-.794.645-1.437 1.44-1.437.795 0 1.44.643 1.44 1.437"/></defs><g><g transform="translate(-893 -5942)"><g><g><use fill="#dfba68" xlink:href="#jvwha"/></g><g><use fill="#dfba68" xlink:href="#jvwhb"/></g><g><use fill="#dfba68" xlink:href="#jvwhc"/></g></g></g></g></svg>