<svg xmlns="http://www.w3.org/2000/svg" xmlns:xlink="http://www.w3.org/1999/xlink" width="24" height="30" viewBox="0 0 24 30"><defs><path id="atjba" d="M185 5969c-8-6-12-12-12-18 0-6.627 5.373-12 12-12s12 5.373 12 12c0 6-4 12-12 18zm10-18c0-5.523-4.477-10-10-10s-10 4.477-10 10c0 4.972 3.267 10.143 10 15.476 6.733-5.333 10-10.504 10-15.476z"/><path id="atjbb" d="M185 5957a6 6 0 1 1 0-12 6 6 0 0 1 0 12zm0-2a4 4 0 1 0 0-8 4 4 0 0 0 0 8z"/></defs><g><g transform="translate(-173 -5939)"><g><use fill="#dfba68" xlink:href="#atjba"/></g><g><use fill="#dfba68" xlink:href="#atjbb"/></g></g></g></svg>