<?xml version="1.0" encoding="UTF-8" standalone="no"?>
<!DOCTYPE svg PUBLIC "-//W3C//DTD SVG 1.1//EN" "http://www.w3.org/Graphics/SVG/1.1/DTD/svg11.dtd">
<svg xmlns="http://www.w3.org/2000/svg" xmlns:xlink="http://www.w3.org/1999/xlink" version="1.1" width="907.087pt" height="1048.82pt" viewBox="0 0 907.087 1048.82">
<g enable-background="new">
<g id="Layer-1" data-name="Layer">
<clipPath id="cp0">
<path transform="matrix(1,0,0,-1,0,1048.82)" d="M 0 1048.819 L 907.087 1048.819 L 907.087 0 L 0 0 Z "/>
</clipPath>
<g clip-path="url(#cp0)">
<path transform="matrix(1,0,0,-1,366.3643,813.66317)" d="M 0 0 C .162 -.415 .34 -.834 .484 -1.26 C .469 -1.256 .455 -1.251 .423 -1.242 C .011 -1.136 -.404 -1.032 -.816 -.927 C -2.254 -.552 -3.688 -.164 -5.096 .317 C -5.369 .399 -5.637 .494 -5.91 .575 C -6.922 .888 -7.943 1.172 -8.937 1.549 L -12.706 2.976 C -13.972 3.433 -15.185 4.023 -16.432 4.558 C -17.662 5.087 -18.904 5.635 -20.092 6.253 L -23.725 8.056 L -27.259 10.03 C -28.463 10.652 -29.585 11.4 -30.749 12.11 C -31.898 12.813 -33.065 13.508 -34.181 14.272 L -37.551 16.546 L -40.855 18.937 C -41.966 19.715 -43.003 20.588 -44.083 21.422 C -45.163 22.258 -46.231 23.073 -47.259 23.976 L -50.403 26.585 L -53.457 29.285 C -55.474 31.113 -57.507 32.946 -59.428 34.88 C -61.393 36.775 -63.289 38.75 -65.182 40.727 C -67.037 42.724 -68.883 44.75 -70.673 46.81 C -72.476 48.877 -74.241 50.964 -75.958 53.103 C -79.434 57.345 -82.763 61.709 -85.941 66.196 C -87.514 68.443 -89.083 70.706 -90.573 73.012 C -91.831 74.917 -93.079 76.853 -94.251 78.832 C -94.17 78.825 -94.086 78.832 -94.001 78.841 C -93.701 78.386 -90.51 73.594 -85.457 66.938 C -84.102 65.204 -82.679 63.302 -81.095 61.334 C -79.531 59.357 -77.856 57.298 -76.078 55.206 C -74.335 53.092 -72.451 50.969 -70.542 48.807 C -68.655 46.634 -66.616 44.531 -64.639 42.383 C -62.595 40.296 -60.555 38.195 -58.49 36.188 C -56.378 34.23 -54.376 32.225 -52.316 30.433 C -50.213 28.682 -48.291 26.865 -46.303 25.346 C -44.319 23.811 -42.476 22.301 -40.713 21.029 C -38.912 19.783 -37.276 18.651 -35.82 17.637 C -34.366 16.609 -32.984 15.92 -31.912 15.236 C -30.406 14.342 -29.349 13.715 -28.824 13.427 C -29.326 13.74 -30.372 14.4 -31.851 15.336 C -32.919 16.032 -34.274 16.765 -35.683 17.831 C -37.111 18.886 -38.721 20.061 -40.479 21.345 C -42.21 22.67 -43.99 24.23 -45.931 25.801 C -47.872 27.374 -49.75 29.227 -51.771 31.039 C -53.784 32.883 -55.727 34.923 -57.775 36.927 C -59.779 38.984 -61.74 41.128 -63.722 43.263 C -65.635 45.46 -67.596 47.605 -69.426 49.813 C -71.256 52.019 -73.084 54.174 -74.746 56.331 C -76.468 58.454 -78.079 60.563 -79.576 62.554 C -81.106 64.539 -82.45 66.484 -83.75 68.236 C -87.293 73.182 -89.854 77.069 -91.08 78.965 C -90.947 78.974 -90.812 78.985 -90.681 78.98 C -89.743 79.053 -88.79 79.123 -87.846 79.211 C -87.762 79.22 -87.661 79.224 -87.577 79.233 C -87.562 79.229 -87.543 79.24 -87.528 79.235 C -86.615 79.332 -85.718 79.434 -84.798 79.549 C -84.749 79.549 -84.681 79.563 -84.631 79.564 C -84.14 79.621 -83.678 79.684 -83.198 79.761 C -82.806 79.81 -82.427 79.882 -82.035 79.934 C -81.539 80.004 -81.025 80.085 -80.525 80.173 C -80.385 80.197 -80.231 80.221 -80.094 80.245 C -79.817 80.297 -79.54 80.349 -79.263 80.4 C -78.674 80.511 -78.072 80.617 -77.491 80.761 L -77.475 80.757 C -77.41 80.755 -77.34 80.768 -77.281 80.802 C -77.024 80.843 -76.779 80.901 -76.531 80.964 L -74.11 81.532 C -73.44 81.286 -72.775 81.022 -72.113 80.745 C -71.168 80.367 -70.229 79.973 -69.323 79.521 C -67.053 78.536 -64.891 77.351 -62.701 76.204 C -60.573 74.943 -58.436 73.731 -56.396 72.331 C -55.355 71.655 -54.332 70.973 -53.34 70.23 C -52.351 69.487 -51.345 68.793 -50.378 68.024 L -47.459 65.73 C -46.49 64.961 -45.575 64.125 -44.633 63.329 C -43.686 62.549 -42.769 61.713 -41.874 60.865 C -40.963 60.014 -40.039 59.209 -39.171 58.321 L -36.534 55.709 L -33.99 53.009 C -32.322 51.167 -30.649 49.341 -29.081 47.428 C -27.476 45.539 -25.957 43.573 -24.431 41.624 C -22.932 39.649 -21.451 37.661 -20.013 35.637 C -18.575 33.613 -17.178 31.566 -15.821 29.484 C -14.446 27.412 -13.129 25.308 -11.852 23.18 C -10.56 21.05 -9.32 18.899 -8.121 16.729 C -6.906 14.554 -5.764 12.352 -4.641 10.136 C -3.588 8.026 -2.556 5.903 -1.601 3.739 C -1.585 3.734 -1.589 3.719 -1.576 3.715 C -1.535 3.62 -1.501 3.51 -1.447 3.41 C -1.125 2.683 -.814 1.973 -.51 1.233 C -.388 .965 -.282 .699 -.181 .419 C -.117 .284 -.061 .136 0 0 M 3.077 -1.023 C 3.349 -1.454 3.482 -1.742 3.482 -1.742 L 3.317 -1.81 C 3.225 -1.551 3.133 -1.289 3.042 -1.03 L 3.047 -1.015 C 3.024 -.974 3.013 -.956 3.006 -.92 C 2.95 -.769 2.894 -.62 2.837 -.469 C 3.083 -.591 3.225 -.667 3.225 -.667 L 3.065 -1.003 C 3.061 -1.019 3.077 -1.023 3.077 -1.023 M 43.174 130.537 C 45.547 128.869 47.941 127.215 50.378 125.597 L 46.242 126.532 C 44.621 126.893 42.994 127.24 41.369 127.585 C 40.94 127.878 40.515 128.171 40.088 128.462 L 40.695 128.817 L 41.772 129.565 Z M 189.552 21.895 C 189.568 21.891 189.568 21.891 189.584 21.886 L 189.579 21.87 L 189.563 21.875 Z M 207.969 .73 C 208.447 .439 208.947 .176 209.437 -.067 L 208.949 -.226 L 207.061 -.818 C 206.437 -1.001 205.783 -1.109 205.151 -1.256 L 201.317 -2.128 C 200.026 -2.347 198.717 -2.511 197.418 -2.695 L 195.471 -2.973 L 193.515 -3.112 C 192.212 -3.196 190.907 -3.345 189.586 -3.372 L 185.648 -3.379 C 184.323 -3.424 183.021 -3.272 181.701 -3.234 L 179.729 -3.135 L 177.769 -2.926 C 176.454 -2.754 175.127 -2.698 173.829 -2.466 C 172.523 -2.263 171.21 -2.094 169.913 -1.861 L 166.01 -1.096 C 163.42 -.498 160.839 .129 158.271 .868 C 156.998 1.242 155.714 1.639 154.458 2.076 C 154.337 2.112 154.235 2.157 154.113 2.193 C 154.963 2.36 155.815 2.526 156.649 2.695 C 156.807 2.734 156.98 2.766 157.138 2.802 C 158.857 3.146 160.555 3.529 162.243 3.934 C 162.967 4.12 163.686 4.292 164.396 4.483 C 165.229 4.353 170.979 3.559 176.734 3.014 C 178.296 2.854 179.847 2.766 181.308 2.65 C 182.764 2.522 184.145 2.531 185.308 2.473 C 186.484 2.392 187.467 2.504 188.139 2.504 C 188.652 2.52 189 2.536 189.151 2.54 C 189.005 2.549 188.655 2.588 188.139 2.621 C 187.467 2.687 186.496 2.673 185.335 2.865 C 184.19 3.052 182.833 3.185 181.399 3.458 C 179.962 3.715 178.427 3.967 176.91 4.296 C 174.298 4.816 171.686 5.385 169.555 5.862 C 171.356 6.383 173.146 6.922 174.915 7.501 L 174.931 7.497 C 175.167 7.461 175.442 7.396 175.74 7.341 C 176.328 7.22 177.034 7.093 177.762 6.946 C 178.517 6.825 179.308 6.724 180.11 6.604 C 180.903 6.505 181.684 6.358 182.438 6.302 C 183.183 6.266 183.893 6.224 184.492 6.196 C 185.687 6.129 186.467 6.1 186.467 6.1 C 186.467 6.1 185.7 6.291 184.539 6.6 C 183.974 6.751 183.298 6.915 182.581 7.111 C 181.88 7.301 181.143 7.601 180.395 7.855 C 179.68 8.114 178.975 8.355 178.325 8.614 C 179.788 9.1 181.258 9.6 182.7 10.127 L 182.646 9.992 C 182.646 9.992 183.05 9.906 183.667 9.773 C 184.271 9.646 185.085 9.507 185.912 9.412 C 186.721 9.309 187.551 9.279 188.157 9.284 C 188.774 9.32 189.176 9.352 189.176 9.352 C 189.176 9.352 188.786 9.482 188.231 9.663 C 187.675 9.911 186.962 10.237 186.286 10.637 C 185.991 10.808 185.707 10.975 185.441 11.135 C 191.266 13.321 196.837 15.715 202.113 18.228 L 202.046 18.097 L 201.773 17.295 C 201.622 16.754 201.376 16.227 201.272 15.674 L 200.979 13.977 C 200.921 13.411 200.937 12.822 200.907 12.248 C 200.874 11.657 201.029 11.094 201.081 10.513 C 201.112 9.92 201.322 9.374 201.474 8.797 C 201.604 8.207 201.886 7.69 202.115 7.156 C 202.339 6.606 202.675 6.108 202.981 5.617 C 203.261 5.085 203.648 4.654 204.009 4.181 C 204.369 3.708 204.803 3.315 205.208 2.895 C 205.613 2.459 206.096 2.132 206.542 1.735 C 206.984 1.373 207.489 1.073 207.969 .73 M 255.604 99.446 C 256.578 99.408 257.54 99.393 258.51 99.455 C 259.485 99.484 260.448 99.586 261.401 99.706 C 262.356 99.841 263.29 100.015 264.229 100.206 C 265.172 100.411 266.105 100.637 267.012 100.887 C 268.861 101.407 270.658 102.029 272.416 102.744 C 273.3 103.084 274.151 103.499 275.028 103.875 C 275.892 104.27 276.726 104.726 277.578 105.143 L 280.07 106.492 L 282.376 107.878 C 282.906 107.54 283.303 106.907 283.578 106.242 C 283.699 105.972 283.787 105.696 283.868 105.406 C 283.756 105.289 283.63 105.191 283.515 105.077 C 282.105 103.725 280.679 102.377 279.246 100.999 C 277.821 99.651 276.41 98.351 274.864 97.156 C 271.796 94.742 268.404 92.64 264.803 90.834 C 262.666 89.764 260.461 88.794 258.187 87.931 C 258.126 88.066 258.059 88.235 257.991 88.406 C 257.716 89.187 257.655 90.088 257.655 90.088 C 257.655 90.088 257.103 89.4 256.735 88.492 C 256.556 88.08 256.432 87.631 256.368 87.234 C 255.514 86.935 254.659 86.638 253.796 86.357 C 253.729 86.526 253.679 86.709 253.632 86.89 C 253.404 87.841 253.436 88.897 253.436 88.897 C 253.436 88.897 252.8 88.084 252.379 87.041 C 252.217 86.64 252.076 86.197 252 85.804 C 251.047 85.501 250.098 85.213 249.142 84.963 C 249.135 84.996 249.117 85.053 249.11 85.087 C 249.07 85.351 249.074 85.663 249.043 85.959 C 248.984 86.574 248.995 87.205 249.009 87.667 C 249.029 88.146 249.067 88.468 249.067 88.468 C 249.067 88.468 248.881 88.206 248.635 87.794 C 248.389 87.383 248.071 86.826 247.803 86.223 C 247.673 85.927 247.506 85.628 247.406 85.323 C 247.305 85.019 247.222 84.726 247.139 84.484 C 247.132 84.453 247.127 84.438 247.118 84.408 C 245.673 84.05 244.217 83.712 242.736 83.398 C 242.721 83.52 242.725 83.65 242.728 83.784 C 242.741 83.946 242.707 84.122 242.764 84.322 C 242.831 84.688 242.854 85.113 242.969 85.53 C 243.356 87.217 244.075 88.855 244.075 88.855 C 244.075 88.855 242.84 87.602 241.819 86.051 C 241.551 85.682 241.334 85.26 241.109 84.861 C 240.991 84.679 240.929 84.446 240.843 84.255 C 240.767 84.045 240.681 83.854 240.613 83.673 C 240.536 83.511 240.522 83.283 240.493 83.123 C 240.478 83.063 240.476 82.997 240.474 82.93 C 238.907 82.609 237.32 82.325 235.72 82.064 C 236.047 83.002 236.605 84.236 237.234 85.436 C 238.52 87.875 240.024 90.214 240.2 90.496 C 239.957 90.269 238.001 88.31 236.188 86.159 C 235.229 85.01 234.32 83.809 233.716 82.754 C 233.559 82.483 233.414 82.26 233.311 82.008 C 233.256 81.872 233.19 81.758 233.146 81.653 C 232.235 81.507 231.313 81.379 230.396 81.264 C 230.461 81.496 230.533 81.758 230.646 82.041 C 230.939 82.806 231.35 83.685 231.856 84.62 C 232.361 85.553 232.945 86.531 233.571 87.482 C 235.947 91.066 238.904 94.263 239.256 94.641 C 238.853 94.312 235.501 91.58 232.578 88.273 C 231.796 87.403 231.063 86.486 230.4 85.58 C 229.74 84.677 229.161 83.779 228.724 82.975 C 228.482 82.578 228.331 82.156 228.158 81.825 C 227.998 81.487 227.883 81.189 227.795 80.931 C 226.06 80.709 224.301 80.526 222.55 80.36 C 222.739 80.687 222.937 81.045 223.186 81.406 C 223.859 82.475 224.723 83.687 225.712 84.944 C 226.677 86.23 227.8 87.548 228.933 88.849 C 233.195 93.729 237.936 98.148 238.515 98.696 C 237.888 98.214 232.763 94.237 228.018 89.75 C 226.763 88.537 225.521 87.318 224.398 86.116 C 223.275 84.913 222.257 83.73 221.452 82.666 C 221.033 82.156 220.673 81.629 220.363 81.169 C 220.093 80.784 219.858 80.419 219.689 80.101 C 218.412 79.995 217.125 79.907 215.826 79.839 C 216.119 80.302 216.446 80.824 216.775 81.36 C 217.244 82.156 217.825 82.952 218.443 83.819 C 218.745 84.248 219.063 84.688 219.388 85.143 C 219.722 85.575 220.075 86.021 220.429 86.468 C 221.125 87.381 221.892 88.305 222.698 89.2 C 223.485 90.136 224.342 91.035 225.193 91.916 C 226.894 93.717 228.722 95.396 230.466 96.949 C 231.345 97.69 232.179 98.445 233.033 99.093 C 233.86 99.767 234.645 100.402 235.402 100.945 C 238.001 102.915 239.955 104.157 240.41 104.438 C 239.937 104.211 237.858 103.172 235.068 101.462 C 234.264 100.981 233.4 100.418 232.515 99.829 C 231.6 99.248 230.687 98.567 229.715 97.902 C 227.824 96.527 225.807 95.004 223.902 93.348 C 222.933 92.516 221.998 91.69 221.101 90.823 C 220.177 89.978 219.309 89.099 218.49 88.224 C 218.076 87.796 217.661 87.367 217.267 86.95 C 216.886 86.529 216.519 86.087 216.158 85.677 C 215.437 84.855 214.758 84.07 214.181 83.29 C 213.586 82.515 213.061 81.805 212.578 81.196 C 212.182 80.595 211.814 80.038 211.53 79.605 C 210.679 79.556 209.817 79.526 208.972 79.49 C 209.137 79.792 209.314 80.074 209.495 80.369 C 210.016 81.234 210.579 82.084 211.156 82.916 C 211.742 83.726 212.333 84.553 212.976 85.33 C 213.593 86.133 214.232 86.895 214.916 87.643 C 215.554 88.404 216.221 89.142 216.931 89.867 C 217.609 90.6 218.301 91.314 219.034 91.997 C 219.775 92.662 220.456 93.396 221.225 94.037 L 223.49 95.986 L 225.854 97.823 C 226.634 98.443 227.447 99.005 228.275 99.562 C 229.086 100.123 229.894 100.718 230.731 101.254 L 233.29 102.784 L 234.557 103.563 L 235.866 104.261 L 238.49 105.672 C 239.371 106.127 240.298 106.506 241.186 106.928 L 241.977 107.295 C 242.051 106.855 242.18 106.434 242.355 106.066 C 242.849 104.953 243.572 104.074 244.373 103.355 C 245.993 101.926 247.857 101.026 249.775 100.429 C 250.718 100.103 251.698 99.913 252.667 99.744 C 253.644 99.591 254.614 99.487 255.604 99.446 M 300.758 72.572 L 302.852 72.606 L 301.479 70.977 L 298.604 67.605 L 297.148 65.917 C 296.666 65.357 296.109 64.889 295.585 64.361 L 292.397 61.282 C 291.315 60.282 290.119 59.402 288.974 58.472 L 287.242 57.081 C 286.675 56.633 286.044 56.252 285.435 55.83 C 284.216 54.989 283.001 54.165 281.761 53.362 L 277.909 51.196 C 276.646 50.435 275.304 49.846 273.976 49.204 C 272.657 48.593 271.33 47.948 269.957 47.437 C 268.585 46.925 267.239 46.337 265.844 45.863 L 261.672 44.543 L 257.423 43.427 L 253.141 42.539 C 251.7 42.313 250.26 42.088 248.817 41.912 C 247.361 41.757 245.923 41.597 244.456 41.514 C 243.453 41.441 242.423 41.394 241.399 41.43 C 241.501 41.5 241.598 41.554 241.684 41.628 C 242.355 42.097 243.016 42.586 243.638 43.053 C 247.699 44.207 254.592 46.278 261.376 48.73 C 264.007 49.69 266.644 50.68 269.062 51.701 C 270.284 52.208 271.444 52.718 272.538 53.23 C 273.643 53.721 274.652 54.224 275.592 54.712 C 276.054 54.96 276.51 55.177 276.934 55.402 C 277.346 55.647 277.737 55.88 278.112 56.103 C 278.84 56.54 279.498 56.896 279.994 57.266 C 280.733 57.8 281.245 58.165 281.452 58.321 C 281.233 58.186 280.699 57.858 279.924 57.37 C 279.433 57.016 278.754 56.698 278.004 56.304 C 277.623 56.114 277.22 55.9 276.796 55.675 C 276.365 55.485 275.9 55.289 275.416 55.082 C 274.474 54.643 273.431 54.198 272.299 53.781 C 271.187 53.326 270.016 52.889 268.767 52.472 C 266.308 51.595 263.648 50.761 260.982 49.963 C 256.544 48.638 252.054 47.475 248.321 46.56 C 248.826 46.961 249.35 47.357 249.868 47.755 C 250.375 48.038 250.896 48.318 251.412 48.582 C 251.416 48.598 251.432 48.593 251.432 48.593 C 251.757 48.699 252.086 48.818 252.428 48.934 C 253.735 49.382 255.246 49.921 256.873 50.524 C 258.493 51.097 260.209 51.775 261.917 52.438 C 263.64 53.083 265.314 53.855 266.91 54.521 C 267.703 54.836 268.438 55.237 269.157 55.575 C 269.874 55.914 270.536 56.236 271.163 56.536 C 271.799 56.815 272.321 57.16 272.822 57.429 C 273.313 57.719 273.726 57.963 274.075 58.161 C 274.585 58.461 274.954 58.668 275.092 58.745 C 274.943 58.688 274.553 58.52 274.021 58.26 C 273.66 58.082 273.21 57.882 272.718 57.643 C 272.197 57.429 271.654 57.124 271.001 56.898 C 270.358 56.655 269.662 56.392 268.932 56.126 C 268.201 55.857 267.437 55.53 266.612 55.273 C 264.974 54.755 263.263 54.145 261.505 53.662 C 260.378 53.326 259.271 53.002 258.167 52.695 C 260.268 53.993 262.265 55.506 264.329 56.914 C 264.478 57.036 264.638 57.14 264.786 57.262 C 265.997 57.722 267.412 58.323 268.819 58.959 C 269.662 59.394 270.527 59.79 271.301 60.212 C 272.066 60.67 272.797 61.055 273.395 61.429 C 274.425 62.126 275.15 62.612 275.314 62.73 C 275.13 62.65 274.356 62.295 273.232 61.792 C 272.583 61.517 271.792 61.267 270.987 60.972 C 270.257 60.703 269.457 60.487 268.656 60.257 C 273.11 63.829 277.305 67.695 281.225 71.759 C 281.314 71.849 281.405 71.939 281.497 72.029 C 284.342 72.174 287.187 72.253 290.037 72.363 C 291.825 72.419 293.619 72.441 295.402 72.482 Z M 192.41 21.553 L 192.185 20.919 C 192.119 20.687 191.973 20.514 191.871 20.328 L 191.691 20.031 L 191.473 19.778 C 191.314 19.625 191.18 19.432 190.985 19.321 C 190.816 19.187 190.647 19.055 190.47 18.94 L 189.903 18.622 C 189.696 18.519 189.498 18.46 189.313 18.381 C 189.108 18.291 188.898 18.253 188.698 18.178 C 188.502 18.119 188.306 18.061 188.101 18.038 C 187.894 17.998 187.682 17.943 187.479 17.921 C 187.068 17.858 186.66 17.811 186.243 17.783 C 185.4 17.766 184.584 17.772 183.764 17.898 C 184.513 17.928 185.247 17.978 185.979 18.079 C 185.728 18.169 185.506 18.318 185.321 18.539 C 185.233 18.634 185.164 18.737 185.116 18.865 C 185.03 19.025 184.979 19.19 184.949 19.382 L 184.93 19.487 C 184.9 19.68 184.887 19.868 184.92 20.042 C 184.911 20.128 184.937 20.22 184.959 20.297 L 184.963 20.312 C 185.035 20.574 185.157 20.772 185.321 20.957 L 184.983 20.738 L 184.454 20.312 C 184.108 20.013 183.789 19.69 183.496 19.344 C 183.198 18.982 182.946 18.606 182.7 18.196 C 183.029 19.082 183.562 19.875 184.217 20.581 C 184.375 20.736 184.553 20.901 184.729 21.065 L 185.292 21.498 L 185.919 21.865 C 186.133 21.985 186.35 22.055 186.574 22.154 C 186.789 22.275 187.03 22.321 187.262 22.387 C 187.49 22.436 187.72 22.501 187.959 22.53 L 188.682 22.601 L 189.396 22.573 C 189.646 22.582 189.881 22.546 190.113 22.497 L 190.819 22.373 C 191.054 22.334 191.271 22.237 191.504 22.186 L 192.198 21.965 L 192.516 21.872 Z M 173.567 15.5 L 173.225 14.685 C 173.128 14.396 172.918 14.175 172.756 13.94 L 172.503 13.564 L 172.192 13.271 C 171.972 13.07 171.777 12.843 171.539 12.696 C 171.286 12.555 171.057 12.372 170.806 12.246 L 170.051 11.885 C 169.787 11.764 169.521 11.691 169.251 11.604 C 168.996 11.514 168.719 11.461 168.441 11.409 C 168.181 11.354 167.914 11.281 167.63 11.266 C 167.373 11.225 167.096 11.173 166.828 11.15 C 166.275 11.114 165.744 11.087 165.189 11.101 C 164.116 11.132 163.025 11.22 161.973 11.448 C 163.046 11.414 164.114 11.416 165.176 11.52 C 164.772 11.605 164.389 11.819 164.051 12.136 C 163.947 12.232 163.861 12.341 163.767 12.469 C 163.744 12.51 163.708 12.555 163.686 12.593 C 163.397 13.028 163.332 13.499 163.413 13.907 C 163.425 14.071 163.483 14.22 163.571 14.36 C 163.773 14.852 164.171 15.219 164.642 15.379 C 164.68 15.451 164.728 15.505 164.764 15.577 L 164.542 15.491 L 163.78 15.05 L 163.063 14.545 C 162.588 14.185 162.131 13.785 161.731 13.353 C 161.328 12.904 160.952 12.433 160.611 11.917 C 161.103 13.037 161.86 14.049 162.769 14.896 C 163.005 15.095 163.244 15.307 163.48 15.505 L 164.261 16.01 L 165.104 16.442 C 165.386 16.578 165.691 16.67 165.985 16.785 C 166.265 16.902 166.587 16.94 166.897 16.999 C 167.197 17.076 167.511 17.135 167.824 17.144 L 168.769 17.182 L 169.711 17.087 C 170.035 17.073 170.349 17.015 170.635 16.932 L 171.557 16.709 C 171.861 16.621 172.141 16.506 172.44 16.399 L 173.312 16.06 L 173.729 15.904 Z M 152.268 10.289 L 151.783 9.548 C 151.63 9.293 151.397 9.112 151.19 8.89 L 150.874 8.583 L 150.512 8.34 C 150.257 8.197 150.043 8.011 149.768 7.909 C 149.493 7.806 149.245 7.68 148.975 7.592 L 148.161 7.382 C 147.879 7.314 147.595 7.298 147.322 7.26 C 147.047 7.21 146.772 7.224 146.504 7.204 C 146.225 7.201 145.945 7.201 145.67 7.215 C 145.396 7.229 145.12 7.244 144.85 7.273 C 144.309 7.332 143.768 7.391 143.242 7.513 C 142.177 7.744 141.122 8.021 140.125 8.448 C 141.178 8.223 142.237 8.026 143.294 7.932 C 143.373 7.925 143.438 7.923 143.52 7.916 C 143.146 8.107 142.825 8.369 142.587 8.689 C 142.465 8.842 142.363 9.007 142.301 9.191 C 142.1 9.649 142.062 10.161 142.267 10.718 C 142.273 10.749 142.282 10.78 142.308 10.806 C 142.356 10.925 142.401 11.028 142.463 11.128 C 142.666 11.45 142.93 11.689 143.231 11.885 L 142.558 11.648 L 141.75 11.285 C 141.232 11.006 140.705 10.711 140.229 10.353 C 139.751 9.992 139.296 9.593 138.881 9.165 C 139.558 10.184 140.497 11.021 141.522 11.705 C 141.791 11.842 142.068 12.012 142.337 12.148 L 143.193 12.512 L 144.104 12.777 C 144.403 12.856 144.705 12.884 145.019 12.942 C 145.334 13.017 145.654 12.987 145.968 12.996 C 146.281 13.003 146.594 13.01 146.907 12.951 L 147.854 12.822 L 148.749 12.559 C 149.071 12.48 149.351 12.365 149.642 12.229 L 150.503 11.842 C 150.793 11.707 151.039 11.533 151.32 11.369 L 152.121 10.882 L 152.5 10.654 Z M 129.471 8.771 L 128.876 8.112 C 128.698 7.88 128.43 7.742 128.197 7.562 L 127.846 7.298 L 127.451 7.113 C 127.188 6.992 126.933 6.85 126.658 6.798 C 126.376 6.73 126.09 6.646 125.813 6.598 L 124.985 6.507 C 124.697 6.476 124.427 6.505 124.132 6.507 C 123.867 6.503 123.586 6.553 123.315 6.582 C 123.045 6.611 122.759 6.645 122.497 6.705 C 122.235 6.767 121.954 6.816 121.697 6.893 C 121.158 7.017 120.643 7.17 120.119 7.356 C 119.114 7.754 118.118 8.18 117.181 8.757 C 118.201 8.355 119.206 8.026 120.25 7.77 C 120.438 7.729 120.604 7.682 120.791 7.644 C 120.595 7.768 120.405 7.907 120.223 8.076 C 120.04 8.247 119.892 8.423 119.761 8.597 C 119.646 8.779 119.549 8.96 119.502 9.14 L 119.486 9.145 C 119.311 9.694 119.351 10.251 119.581 10.718 C 119.628 10.835 119.705 10.93 119.783 11.04 C 119.948 11.274 120.187 11.488 120.479 11.65 L 120.045 11.563 L 119.188 11.314 C 118.643 11.126 118.091 10.904 117.565 10.609 C 117.029 10.334 116.528 10.015 116.049 9.641 C 116.876 10.546 117.906 11.243 119.033 11.761 C 119.323 11.858 119.604 11.978 119.907 12.07 L 120.793 12.309 L 121.735 12.448 C 122.037 12.476 122.362 12.465 122.678 12.471 C 122.995 12.494 123.302 12.422 123.622 12.393 C 123.938 12.35 124.239 12.312 124.539 12.207 L 125.443 11.924 L 126.32 11.531 C 126.613 11.412 126.879 11.249 127.143 11.073 L 127.938 10.571 C 128.2 10.396 128.435 10.175 128.678 9.987 L 129.408 9.372 L 129.739 9.09 Z M 106.956 10.451 L 106.222 9.634 C 105.989 9.336 105.66 9.148 105.369 8.935 L 104.933 8.597 L 104.423 8.364 C 104.092 8.229 103.776 8.038 103.413 7.977 C 103.077 7.894 102.719 7.783 102.374 7.718 L 101.326 7.609 C 100.975 7.58 100.623 7.616 100.265 7.621 C 99.915 7.607 99.567 7.659 99.223 7.711 C 98.887 7.744 98.535 7.78 98.197 7.864 C 97.875 7.94 97.53 7.995 97.196 8.092 C 96.521 8.259 95.864 8.435 95.229 8.689 C 93.955 9.181 92.695 9.717 91.53 10.427 C 92.698 9.967 93.917 9.575 95.114 9.272 C 95.001 9.338 94.889 9.406 94.778 9.487 C 94.284 9.834 93.944 10.199 93.757 10.589 C 93.626 10.828 93.562 11.063 93.545 11.302 C 93.507 11.745 93.645 12.189 93.906 12.595 C 94.032 12.81 94.196 12.994 94.363 13.177 C 94.697 13.497 95.089 13.78 95.518 14.021 L 95.121 13.954 L 94.053 13.652 C 93.345 13.411 92.659 13.129 92.004 12.773 C 91.332 12.422 90.691 12.009 90.09 11.552 C 91.141 12.676 92.432 13.546 93.845 14.197 C 94.21 14.34 94.58 14.481 94.942 14.607 L 96.076 14.907 L 97.251 15.061 C 97.641 15.112 98.026 15.081 98.425 15.1 C 98.828 15.131 99.216 15.05 99.61 15 C 100.003 14.933 100.399 14.883 100.773 14.757 L 101.912 14.421 L 103.005 13.932 C 103.37 13.773 103.708 13.575 104.04 13.346 L 105.045 12.715 C 105.379 12.5 105.66 12.217 105.972 11.976 L 106.877 11.225 L 107.301 10.866 Z M 88.835 54.936 L 88.458 55.411 C 88.273 55.632 88.161 55.816 88.021 56.024 C 87.899 56.227 87.775 56.43 87.665 56.628 C 87.433 57.031 87.221 57.444 87.027 57.868 C 86.635 58.699 86.296 59.549 86.015 60.417 C 85.715 61.287 85.485 62.173 85.271 63.052 C 85.057 63.934 84.897 64.83 84.752 65.723 L 84.728 65.931 L 84.816 66.07 C 85.176 66.715 85.6 67.24 86.026 67.765 C 86.466 68.285 86.903 68.79 87.37 69.286 C 88.095 70.073 88.835 70.839 89.61 71.561 C 89.725 71.678 89.838 71.793 89.969 71.905 C 89.969 71.905 89.973 71.921 89.986 71.917 C 90.059 71.995 90.126 72.059 90.212 72.133 C 90.248 72.088 90.271 72.05 90.302 71.989 C 90.71 71.387 91.111 70.768 91.474 70.127 C 91.675 69.784 91.854 69.433 92.051 69.074 C 92.235 68.736 92.43 68.378 92.592 68.015 C 92.933 67.296 93.274 66.579 93.562 65.845 C 93.879 65.101 94.108 64.334 94.393 63.584 L 94.449 63.433 L 94.377 63.236 C 94.267 62.838 94.151 62.486 94.014 62.109 C 93.877 61.733 93.728 61.377 93.577 61.005 C 93.279 60.293 92.933 59.578 92.545 58.894 C 91.754 57.525 90.791 56.191 89.353 55.265 Z M 84.342 12.061 L 83.524 11.304 C 83.267 11.028 82.918 10.897 82.614 10.688 L 82.129 10.413 L 81.618 10.23 C 81.277 10.132 80.941 9.98 80.569 9.94 C 80.211 9.895 79.866 9.829 79.512 9.8 L 78.446 9.798 C 78.088 9.805 77.745 9.87 77.398 9.924 C 77.044 9.944 76.724 10.039 76.368 10.111 C 76.046 10.188 75.703 10.256 75.374 10.37 C 75.045 10.483 74.711 10.582 74.382 10.695 C 73.742 10.934 73.109 11.187 72.491 11.502 C 71.267 12.112 70.075 12.782 68.975 13.604 C 70.113 13.037 71.247 12.519 72.41 12.093 C 71.777 12.529 71.254 13.068 70.981 13.682 C 70.855 13.937 70.765 14.195 70.727 14.473 C 70.686 14.685 70.686 14.919 70.715 15.142 C 70.717 15.21 70.724 15.291 70.742 15.352 C 70.765 15.496 70.798 15.617 70.848 15.737 C 70.922 15.999 71.046 16.213 71.197 16.402 C 70.686 16.269 70.183 16.118 69.678 15.899 C 68.993 15.617 68.308 15.269 67.672 14.874 C 68.808 15.888 70.194 16.63 71.664 17.132 C 72.034 17.223 72.408 17.328 72.793 17.416 L 73.956 17.59 L 75.135 17.642 C 75.529 17.642 75.922 17.576 76.307 17.547 C 76.71 17.529 77.089 17.416 77.473 17.319 C 77.855 17.225 78.239 17.128 78.606 16.97 L 79.708 16.51 L 80.738 15.908 C 81.097 15.719 81.426 15.489 81.73 15.232 L 82.657 14.493 C 82.963 14.236 83.225 13.94 83.511 13.675 L 84.338 12.813 L 84.735 12.412 Z M 66.264 66.185 C 65.946 67.111 65.7 68.051 65.473 69.002 C 65.24 69.938 65.083 70.9 64.925 71.865 L 64.886 72.077 L 64.979 72.232 C 65.367 72.917 65.819 73.485 66.289 74.047 C 66.75 74.595 67.219 75.155 67.708 75.679 C 68.5 76.513 69.309 77.357 70.152 78.145 C 70.251 78.264 70.379 78.377 70.49 78.478 C 70.494 78.494 70.51 78.489 70.51 78.489 C 70.58 78.568 70.67 78.656 70.758 78.732 C 70.783 78.708 70.79 78.672 70.816 78.647 L 70.828 78.629 C 71.281 77.962 71.711 77.268 72.108 76.566 C 72.318 76.204 72.525 75.827 72.73 75.451 C 72.922 75.077 73.129 74.698 73.3 74.314 C 73.674 73.537 74.038 72.78 74.353 71.971 C 74.693 71.187 74.939 70.363 75.241 69.559 L 75.293 69.393 L 75.236 69.194 C 75.101 68.766 74.979 68.385 74.833 67.98 C 74.691 67.587 74.533 67.199 74.378 66.812 C 74.044 66.027 73.684 65.266 73.269 64.537 C 72.401 63.077 71.38 61.644 69.823 60.651 L 69.3 60.307 L 68.885 60.812 C 68.689 61.053 68.561 61.24 68.412 61.468 C 68.288 61.67 68.152 61.896 68.033 62.112 C 67.778 62.554 67.555 62.986 67.35 63.431 C 66.931 64.339 66.559 65.247 66.264 66.185 M 62.813 15.271 L 61.995 14.511 C 61.738 14.238 61.388 14.107 61.084 13.896 L 60.597 13.623 L 60.088 13.44 C 59.748 13.339 59.412 13.188 59.04 13.147 C 58.681 13.103 58.336 13.039 57.982 13.01 L 56.917 13.008 C 56.572 13.008 56.215 13.08 55.868 13.132 C 55.528 13.149 55.181 13.251 54.852 13.314 C 54.516 13.397 54.178 13.48 53.844 13.578 C 53.829 13.582 53.799 13.592 53.784 13.596 C 52.546 13.81 51.417 14.227 50.574 14.91 C 49.48 15.465 48.437 16.073 47.461 16.81 C 48.236 16.413 49.037 16.046 49.828 15.712 C 49.557 16.091 49.368 16.53 49.267 16.995 C 49.217 17.225 49.197 17.448 49.197 17.683 C 49.194 17.917 49.23 18.155 49.293 18.386 C 49.359 18.617 49.454 18.841 49.589 19.032 C 49.654 19.147 49.717 19.263 49.812 19.368 C 49.936 19.515 50.069 19.641 50.215 19.749 C 49.515 19.589 48.834 19.389 48.148 19.106 C 47.463 18.825 46.776 18.478 46.143 18.081 C 47.279 19.098 48.665 19.839 50.132 20.34 C 50.502 20.432 50.892 20.533 51.261 20.624 L 52.427 20.797 L 53.605 20.852 C 54 20.852 54.392 20.786 54.775 20.757 C 55.181 20.736 55.56 20.626 55.943 20.529 C 56.342 20.428 56.729 20.347 57.092 20.175 L 58.194 19.715 L 59.225 19.111 C 59.565 18.929 59.896 18.696 60.201 18.439 L 61.127 17.7 C 61.438 17.459 61.695 17.15 61.981 16.882 L 62.808 16.023 L 63.205 15.622 Z M 39.895 20.621 L 38.937 19.837 C 38.642 19.542 38.245 19.409 37.893 19.21 L 37.339 18.924 L 36.766 18.76 C 36.363 18.663 35.991 18.505 35.578 18.494 C 35.195 18.474 34.783 18.41 34.391 18.41 L 33.205 18.458 C 32.819 18.489 32.437 18.584 32.06 18.646 C 31.668 18.71 31.305 18.818 30.926 18.931 C 30.561 19.037 30.178 19.134 29.829 19.287 C 29.472 19.425 29.107 19.533 28.762 19.702 C 28.055 19.992 27.358 20.314 26.693 20.693 C 25.361 21.453 24.079 22.265 22.909 23.243 C 23.912 22.663 24.917 22.149 25.961 21.66 C 25.846 21.777 25.727 21.879 25.611 21.996 C 25.219 22.411 24.958 22.889 24.836 23.392 C 24.78 23.657 24.741 23.937 24.769 24.212 C 24.759 24.415 24.8 24.62 24.852 24.805 C 24.924 25.066 25.039 25.299 25.183 25.523 C 25.379 25.814 25.632 26.073 25.956 26.297 C 25.23 26.159 24.514 26.004 23.817 25.742 C 23.021 25.477 22.255 25.136 21.516 24.719 C 22.844 25.778 24.43 26.529 26.085 26.991 C 26.52 27.081 26.939 27.174 27.354 27.25 L 28.654 27.386 L 29.973 27.348 C 30.412 27.334 30.829 27.243 31.275 27.196 C 31.722 27.148 32.137 26.991 32.563 26.867 C 32.986 26.743 33.41 26.617 33.795 26.405 L 34.997 25.833 L 36.106 25.106 C 36.5 24.872 36.838 24.606 37.161 24.295 L 38.166 23.432 C 38.479 23.139 38.759 22.79 39.063 22.468 L 39.931 21.462 L 40.341 20.991 Z M 19.936 83.901 C 18.879 82.111 17.594 80.324 15.676 79.089 L 15.016 78.665 L 14.52 79.296 C 14.256 79.589 14.112 79.833 13.925 80.105 C 13.767 80.367 13.596 80.635 13.445 80.912 C 13.151 81.448 12.876 81.996 12.604 82.544 C 12.094 83.662 11.639 84.796 11.251 85.943 C 10.871 87.106 10.571 88.263 10.273 89.432 C 9.994 90.615 9.802 91.806 9.604 92.98 L 9.561 93.243 L 9.667 93.446 C 10.163 94.282 10.704 94.99 11.292 95.685 C 11.865 96.383 12.446 97.062 13.055 97.716 C 14.035 98.761 15.024 99.784 16.068 100.763 C 16.206 100.904 16.359 101.042 16.512 101.182 L 16.517 101.195 C 16.627 101.297 16.72 101.387 16.828 101.488 C 16.861 101.43 16.914 101.38 16.945 101.319 C 17.506 100.506 18.027 99.667 18.514 98.824 C 18.764 98.367 19.03 97.904 19.275 97.434 C 19.505 96.965 19.771 96.503 19.997 96.021 C 20.438 95.074 20.91 94.118 21.275 93.126 C 21.708 92.148 22.016 91.141 22.377 90.133 L 22.451 89.931 L 22.381 89.683 C 22.222 89.164 22.052 88.68 21.881 88.179 C 21.694 87.686 21.511 87.205 21.313 86.73 C 20.898 85.77 20.452 84.816 19.936 83.901 M 15.363 27.482 L 14.373 26.757 C 14.051 26.486 13.643 26.373 13.28 26.195 L 12.723 25.959 L 12.126 25.819 C 11.729 25.751 11.333 25.618 10.943 25.634 C 10.544 25.618 10.143 25.587 9.737 25.605 L 8.581 25.747 C 8.184 25.797 7.81 25.923 7.422 26.004 C 7.048 26.08 6.678 26.225 6.322 26.362 C 5.948 26.488 5.589 26.612 5.243 26.779 C 4.891 26.933 4.535 27.072 4.194 27.255 C 3.505 27.608 2.831 27.958 2.193 28.38 C .919 29.22 -.327 30.104 -1.427 31.163 C -.431 30.503 .579 29.888 1.623 29.331 C 1.56 29.398 1.472 29.441 1.409 29.509 C .888 29.995 .518 30.606 .419 31.251 L .403 31.256 C .36 31.52 .37 31.783 .428 32.049 C .459 32.225 .507 32.394 .588 32.569 L .608 32.581 C .653 32.685 .717 32.797 .777 32.896 C .886 33.048 1.01 33.196 1.127 33.327 C 1.49 33.688 1.918 33.929 2.4 34.068 L 2.067 34.051 C 1.253 33.956 .433 33.832 -.37 33.602 C -1.172 33.372 -1.959 33.086 -2.729 32.73 C -1.344 33.705 .293 34.339 1.967 34.697 C 2.394 34.754 2.824 34.828 3.25 34.885 L 4.56 34.934 L 5.876 34.828 C 6.302 34.77 6.73 34.659 7.165 34.566 C 7.607 34.504 8.013 34.316 8.418 34.181 C 8.835 34.023 9.25 33.868 9.628 33.641 L 10.796 32.995 L 11.869 32.197 C 12.239 31.937 12.568 31.641 12.87 31.318 L 13.81 30.39 C 14.114 30.067 14.36 29.712 14.644 29.378 L 15.448 28.325 L 15.836 27.827 Z M -4.803 84.188 L -5.378 84.891 C -5.658 85.24 -5.845 85.513 -6.05 85.839 C -6.232 86.126 -6.422 86.448 -6.6 86.75 C -6.951 87.372 -7.269 87.999 -7.567 88.637 C -8.153 89.892 -8.673 91.197 -9.108 92.524 C -9.546 93.839 -9.895 95.175 -10.227 96.521 C -10.56 97.855 -10.772 99.217 -11.001 100.569 L -11.047 100.882 L -10.92 101.094 C -10.373 102.065 -9.739 102.863 -9.072 103.668 C -8.41 104.457 -7.751 105.23 -7.048 105.989 C -5.946 107.182 -4.801 108.345 -3.602 109.475 C -3.44 109.644 -3.282 109.797 -3.088 109.957 C -3.088 109.957 -3.1 109.977 -3.083 109.973 C -2.971 110.09 -2.856 110.204 -2.728 110.317 C -2.689 110.272 -2.669 110.233 -2.63 110.188 C -2.624 110.152 -2.61 110.148 -2.599 110.13 C -1.957 109.19 -1.371 108.234 -.807 107.252 C -.51 106.729 -.212 106.208 .061 105.66 C .345 105.145 .638 104.608 .893 104.049 C 1.411 102.963 1.943 101.872 2.366 100.747 C 2.858 99.62 3.209 98.466 3.624 97.31 L 3.71 97.084 L 3.628 96.791 C 3.446 96.196 3.261 95.648 3.052 95.078 C 2.849 94.521 2.628 93.97 2.394 93.422 C 1.92 92.311 1.422 91.224 .82 90.183 C -.393 88.123 -1.846 86.085 -4.042 84.681 Z M 27.521 86.4 C 28.016 87.239 28.557 87.946 29.146 88.641 C 29.718 89.34 30.3 90.019 30.908 90.672 C 31.868 91.706 32.855 92.716 33.911 93.672 C 34.037 93.834 34.194 93.987 34.363 94.123 C 34.368 94.136 34.373 94.152 34.386 94.147 C 34.497 94.249 34.586 94.339 34.697 94.44 C 34.733 94.396 34.767 94.337 34.803 94.292 C 35.349 93.482 35.88 92.624 36.367 91.78 C 36.633 91.318 36.883 90.861 37.129 90.39 C 37.379 89.933 37.625 89.459 37.85 88.977 C 38.292 88.03 38.766 87.074 39.144 86.078 C 39.565 85.12 39.872 84.097 40.23 83.092 L 40.31 82.9 L 40.237 82.639 C 40.075 82.12 39.908 81.636 39.734 81.136 C 39.552 80.657 39.365 80.162 39.169 79.687 C 38.752 78.724 38.308 77.772 37.794 76.873 C 36.734 75.067 35.448 73.28 33.534 72.061 L 32.872 71.621 L 32.373 72.253 C 32.109 72.546 31.965 72.789 31.778 73.062 C 31.623 73.323 31.451 73.592 31.314 73.864 C 31.005 74.405 30.73 74.953 30.458 75.5 C 29.948 76.618 29.493 77.752 29.107 78.899 C 28.724 80.063 28.427 81.232 28.131 82.404 C 27.85 83.572 27.656 84.762 27.458 85.937 L 27.417 86.2 Z M 46.497 78.027 C 46.936 78.78 47.423 79.404 47.939 80.02 C 48.453 80.635 48.964 81.234 49.508 81.825 C 50.369 82.738 51.264 83.657 52.179 84.523 C 52.312 84.649 52.431 84.782 52.575 84.888 L 52.58 84.904 C 52.67 84.994 52.776 85.08 52.866 85.17 C 52.893 85.146 52.9 85.111 52.925 85.087 L 52.92 85.07 C 53.423 84.338 53.914 83.576 54.354 82.797 C 54.586 82.396 54.82 81.994 55.032 81.582 C 55.246 81.167 55.474 80.75 55.668 80.326 C 56.069 79.475 56.477 78.638 56.822 77.752 C 57.189 76.894 57.459 75.98 57.789 75.102 L 57.852 74.914 L 57.787 74.685 C 57.642 74.227 57.494 73.804 57.338 73.366 C 57.183 72.929 57.013 72.494 56.829 72.065 C 56.477 71.218 56.083 70.384 55.609 69.575 C 54.669 67.968 53.54 66.383 51.843 65.299 L 51.248 64.925 L 50.808 65.471 C 50.587 65.736 50.448 65.943 50.288 66.191 C 50.141 66.433 49.992 66.66 49.866 66.915 C 49.586 67.382 49.343 67.868 49.106 68.371 C 48.658 69.354 48.25 70.359 47.925 71.371 C 47.574 72.408 47.303 73.438 47.051 74.48 C 46.801 75.521 46.618 76.573 46.451 77.624 L 46.399 77.855 Z M 102.602 59.13 C 102.976 59.771 103.386 60.3 103.825 60.82 C 104.252 61.346 104.687 61.851 105.153 62.347 C 105.899 63.145 106.656 63.92 107.44 64.673 L 107.466 64.699 C 107.556 64.79 107.662 64.875 107.752 64.966 C 107.838 65.04 107.91 65.119 107.995 65.193 C 108.033 65.15 108.054 65.109 108.088 65.051 C 108.509 64.442 108.895 63.829 109.258 63.188 C 109.458 62.847 109.654 62.488 109.835 62.135 C 110.02 61.797 110.216 61.438 110.376 61.075 C 110.718 60.358 111.059 59.64 111.362 58.9 C 111.665 58.161 111.908 57.39 112.177 56.644 L 112.232 56.493 L 112.177 56.292 C 112.066 55.892 111.933 55.53 111.8 55.17 C 111.662 54.794 111.529 54.433 111.376 54.061 C 111.063 53.354 110.731 52.634 110.328 51.953 C 109.537 50.585 108.572 49.237 107.132 48.309 L 106.634 47.989 L 106.242 48.471 C 106.06 48.692 105.944 48.877 105.807 49.084 C 105.683 49.287 105.559 49.49 105.45 49.688 C 105.219 50.092 105.004 50.504 104.811 50.928 C 104.418 51.76 104.082 52.609 103.799 53.478 C 103.515 54.345 103.271 55.233 103.057 56.112 C 102.843 56.993 102.696 57.886 102.552 58.778 L 102.512 58.99 Z M -13.979 105.079 C -14.195 104.36 -14.43 103.695 -14.667 103.015 C -14.921 102.341 -15.174 101.664 -15.456 101.013 C -16.023 99.681 -16.632 98.376 -17.358 97.123 C -18.821 94.637 -20.574 92.168 -23.231 90.467 L -24.131 89.883 L -24.83 90.737 C -24.913 90.846 -24.987 90.936 -25.057 91.039 C -25.29 91.323 -25.45 91.571 -25.632 91.857 C -25.873 92.23 -26.094 92.612 -26.306 92.973 C -26.723 93.712 -27.102 94.475 -27.464 95.231 C -28.184 96.777 -28.801 98.326 -29.322 99.931 C -29.863 101.524 -30.284 103.132 -30.672 104.745 C -31.073 106.363 -31.337 108.009 -31.621 109.644 L -31.682 110.011 L -31.528 110.266 C -30.843 111.433 -30.079 112.406 -29.286 113.373 C -28.481 114.32 -27.69 115.271 -26.854 116.157 C -25.492 117.624 -24.113 119.051 -22.668 120.41 C -22.472 120.584 -22.269 120.775 -22.073 120.951 L -22.068 120.967 C -21.916 121.105 -21.782 121.233 -21.629 121.37 C -21.593 121.325 -21.57 121.287 -21.534 121.242 C -21.523 121.222 -21.517 121.188 -21.517 121.188 C -20.732 120.057 -20.006 118.892 -19.323 117.689 C -18.956 117.065 -18.609 116.43 -18.266 115.778 C -17.937 115.132 -17.57 114.507 -17.279 113.838 C -16.648 112.517 -16.01 111.212 -15.489 109.842 C -14.91 108.505 -14.482 107.097 -13.981 105.715 L -13.88 105.433 Z M -87.719 89.561 C -87.246 89.905 -86.66 90.3 -86.008 90.758 C -85.348 91.246 -84.564 91.699 -83.786 92.319 C -82.995 92.919 -82.141 93.568 -81.241 94.271 C -80.322 94.916 -79.452 95.743 -78.507 96.548 C -77.577 97.359 -76.596 98.171 -75.71 99.108 C -74.811 100.044 -73.813 100.918 -73.012 101.967 C -72.178 102.953 -71.297 103.945 -70.598 105.038 C -70.253 105.57 -69.852 106.068 -69.521 106.605 C -69.203 107.162 -68.903 107.707 -68.592 108.232 C -68.268 108.753 -68.044 109.321 -67.794 109.864 C -67.564 110.396 -67.287 110.914 -67.107 111.446 C -66.742 112.521 -66.395 113.536 -66.219 114.519 C -66.102 115.001 -66.036 115.465 -65.994 115.918 C -65.937 116.354 -65.847 116.793 -65.836 117.189 C -65.82 117.602 -65.811 117.982 -65.797 118.328 C -65.813 118.684 -65.822 119.004 -65.84 119.292 C -65.892 119.874 -65.944 120.338 -66.007 120.641 C -66.041 120.868 -66.079 121.028 -66.097 121.084 C -66.036 120.949 -65.791 120.36 -65.604 119.321 C -65.554 119.024 -65.511 118.711 -65.45 118.344 C -65.432 117.987 -65.396 117.593 -65.378 117.188 C -65.333 116.757 -65.387 116.324 -65.387 115.857 C -65.385 115.391 -65.443 114.891 -65.536 114.383 C -65.64 113.364 -65.924 112.28 -66.241 111.14 C -66.386 110.565 -66.634 110.021 -66.848 109.436 C -67.06 108.848 -67.287 108.264 -67.607 107.709 C -67.912 107.148 -68.218 106.571 -68.516 105.977 C -68.84 105.403 -69.235 104.869 -69.602 104.313 C -70.314 103.172 -71.205 102.151 -72.07 101.105 C -72.911 100.035 -73.927 99.151 -74.863 98.209 C -75.775 97.229 -76.824 96.469 -77.8 95.673 C -78.78 94.862 -79.727 94.109 -80.698 93.51 C -81.661 92.876 -82.551 92.272 -83.394 91.72 C -84.201 91.125 -85.042 90.755 -85.761 90.35 C -86.457 89.971 -87.079 89.621 -87.595 89.357 C -88.501 88.873 -89.056 88.587 -89.193 88.511 C -89.087 88.596 -88.576 88.961 -87.719 89.561 M -101.056 86.788 C -101.541 86.995 -102.108 87.248 -102.771 87.525 C -103.411 87.816 -104.191 88.077 -104.926 88.563 C -105.699 89.021 -106.52 89.497 -107.405 90.025 C -108.309 90.491 -109.121 91.23 -110.002 91.892 C -110.443 92.254 -110.91 92.576 -111.343 92.969 C -111.735 93.386 -112.143 93.805 -112.563 94.244 C -112.95 94.677 -113.412 95.078 -113.768 95.567 L -114.814 97.06 L -115.326 97.81 C -115.481 98.074 -115.601 98.357 -115.736 98.631 C -115.995 99.174 -116.27 99.722 -116.529 100.265 C -116.748 100.83 -116.878 101.419 -117.065 101.991 L -117.307 102.827 L -117.411 103.692 C -117.48 104.263 -117.606 104.817 -117.602 105.365 C -117.595 105.915 -117.575 106.458 -117.559 106.988 C -117.577 107.509 -117.44 108.002 -117.388 108.487 C -117.336 108.972 -117.253 109.447 -117.118 109.873 C -116.996 110.306 -116.91 110.73 -116.784 111.126 C -116.631 111.498 -116.498 111.858 -116.354 112.199 C -116.085 112.871 -115.797 113.437 -115.553 113.898 C -115.051 114.818 -114.681 115.26 -114.681 115.26 C -114.681 115.26 -114.958 114.739 -115.339 113.786 C -115.521 113.306 -115.729 112.733 -115.923 112.039 C -116.112 111.363 -116.295 110.583 -116.421 109.72 C -116.522 109.299 -116.565 108.846 -116.581 108.383 C -116.595 107.921 -116.694 107.448 -116.651 106.952 C -116.624 106.461 -116.602 105.956 -116.581 105.433 C -116.529 104.917 -116.408 104.414 -116.326 103.873 L -116.187 103.082 L -115.927 102.305 C -115.745 101.784 -115.601 101.243 -115.398 100.731 C -115.146 100.224 -114.893 99.717 -114.656 99.214 C -114.51 98.971 -114.404 98.705 -114.257 98.464 L -113.764 97.768 L -112.797 96.348 C -112.463 95.898 -112.03 95.507 -111.672 95.083 C -111.295 94.673 -110.901 94.256 -110.541 93.85 C -110.139 93.465 -109.709 93.122 -109.298 92.768 C -108.451 92.101 -107.736 91.308 -106.882 90.787 C -106.069 90.232 -105.3 89.689 -104.57 89.191 C -103.88 88.67 -103.154 88.323 -102.555 87.946 C -101.93 87.595 -101.398 87.271 -100.957 87.025 C -100.075 86.481 -99.568 86.182 -99.568 86.182 C -99.568 86.182 -100.111 86.409 -101.056 86.788 M -137.394 135.253 C -137.563 134.938 -137.694 134.592 -137.899 134.319 C -138.095 134.026 -138.293 133.733 -138.521 133.501 C -138.952 133.012 -139.425 132.618 -139.844 132.341 C -140.259 132.029 -140.662 131.881 -140.93 131.743 C -141.194 131.621 -141.356 131.569 -141.356 131.569 C -141.356 131.569 -141.264 131.726 -141.083 131.957 C -140.919 132.191 -140.624 132.487 -140.349 132.891 C -140.198 133.08 -140.038 133.299 -139.867 133.499 C -139.722 133.722 -139.569 133.977 -139.391 134.209 C -139.215 134.423 -139.114 134.728 -138.952 134.962 C -138.767 135.207 -138.686 135.501 -138.543 135.775 C -138.422 136.039 -138.325 136.328 -138.232 136.601 C -138.181 136.902 -138.059 137.166 -138.027 137.457 C -137.921 138.009 -137.885 138.55 -137.883 139.032 C -137.896 139.986 -138.036 140.662 -138.036 140.662 C -138.036 140.662 -137.5 140.171 -137.175 139.156 C -137.009 138.641 -136.889 138.007 -136.93 137.333 C -136.927 136.632 -137.126 135.924 -137.394 135.253 M -141.884 136.094 C -143.525 133.675 -146.813 133.062 -149.214 134.752 C -151.612 136.442 -152.223 139.79 -150.577 142.222 C -148.937 144.638 -145.648 145.253 -143.263 143.567 C -140.863 141.877 -140.254 138.53 -141.884 136.094 M -170.108 134.822 C -170.741 135.025 -171.514 135.188 -172.377 135.507 C -173.234 135.843 -174.199 136.211 -175.26 136.641 C -176.302 137.08 -177.386 137.667 -178.558 138.228 C -179.734 138.775 -180.886 139.53 -182.119 140.227 C -183.348 140.939 -184.533 141.807 -185.777 142.639 C -186.999 143.5 -188.198 144.436 -189.404 145.341 C -190.571 146.335 -191.75 147.284 -192.868 148.28 C -193.97 149.27 -195.072 150.262 -196.073 151.258 C -197.11 152.247 -198.063 153.243 -198.949 154.188 C -199.853 155.121 -200.658 156.059 -201.424 156.901 C -204.023 159.884 -205.65 162.165 -206.031 162.744 C -205.857 162.543 -205.387 162.055 -204.719 161.324 C -203.829 160.344 -202.493 159.016 -200.908 157.399 C -200.11 156.615 -199.258 155.73 -198.305 154.849 C -197.372 153.958 -196.364 153.043 -195.318 152.085 C -194.309 151.12 -193.168 150.201 -192.082 149.214 C -190.977 148.24 -189.789 147.322 -188.628 146.362 C -187.436 145.463 -186.275 144.503 -185.085 143.653 C -183.868 142.844 -182.728 141.924 -181.54 141.189 C -180.345 140.473 -179.245 139.647 -178.116 139.048 C -176.991 138.433 -175.961 137.779 -174.96 137.302 C -173.946 136.819 -173.024 136.364 -172.217 135.96 C -171.397 135.553 -170.644 135.313 -170.038 135.067 C -168.818 134.559 -168.125 134.288 -168.125 134.288 C -168.125 134.288 -168.841 134.481 -170.108 134.822 M -199.506 127.328 C -199.538 127.154 -199.63 126.999 -199.772 126.906 C -199.912 126.813 -200.069 126.777 -200.245 126.796 C -200.572 126.859 -200.818 127.215 -200.757 127.546 C -199.711 133.842 -196.308 140.64 -193.756 145.089 C -193.486 144.827 -193.195 144.575 -192.904 144.322 L -192.769 144.217 C -195.25 139.846 -198.523 133.273 -199.506 127.328 M -205.894 135.496 C -206.042 135.189 -206.426 135.052 -206.728 135.207 C -207.043 135.367 -207.181 135.758 -207.03 136.064 C -204.352 141.677 -200.232 145.93 -197.351 148.434 L -196.389 147.532 C -199.202 145.094 -203.302 140.917 -205.894 135.496 M 120.744 52.77 C 121.113 53.394 121.528 53.939 121.968 54.458 C 122.407 54.98 122.828 55.49 123.295 55.985 C 124.041 56.781 124.801 57.559 125.583 58.312 L 125.607 58.339 C 125.698 58.429 125.804 58.515 125.894 58.603 C 125.981 58.677 126.052 58.758 126.14 58.833 C 126.176 58.787 126.198 58.747 126.229 58.688 C 126.651 58.08 127.037 57.467 127.401 56.826 C 127.601 56.484 127.796 56.126 127.977 55.774 C 128.161 55.436 128.357 55.077 128.518 54.712 C 128.86 53.995 129.2 53.279 129.5 52.523 C 129.807 51.8 130.05 51.027 130.318 50.281 L 130.375 50.132 L 130.318 49.932 C 130.208 49.53 130.075 49.17 129.942 48.81 C 129.805 48.433 129.669 48.072 129.519 47.7 C 129.2 46.977 128.874 46.271 128.486 45.586 C 127.682 44.225 126.719 42.891 125.274 41.948 L 124.776 41.628 L 124.399 42.106 C 124.201 42.331 124.089 42.514 123.949 42.722 C 123.825 42.927 123.717 43.125 123.593 43.328 C 123.36 43.729 123.162 44.137 122.952 44.565 C 122.561 45.399 122.225 46.249 121.94 47.114 C 121.656 47.982 121.429 48.865 121.199 49.751 C 120.984 50.631 120.838 51.523 120.694 52.416 L 120.653 52.627 Z M 139.463 47.187 C 139.763 47.731 140.105 48.198 140.459 48.645 C 140.812 49.091 141.183 49.53 141.562 49.954 C 142.141 50.617 142.765 51.266 143.396 51.882 C 143.49 51.987 143.599 52.087 143.709 52.188 C 143.714 52.204 143.729 52.199 143.729 52.199 C 143.781 52.267 143.849 52.33 143.914 52.393 C 143.937 52.355 143.973 52.31 143.995 52.271 C 144.352 51.782 144.686 51.269 145.008 50.723 C 145.174 50.438 145.343 50.157 145.506 49.859 C 145.668 49.56 145.835 49.278 145.979 48.97 C 146.29 48.377 146.583 47.774 146.835 47.15 C 147.126 46.546 147.336 45.886 147.572 45.266 L 147.617 45.136 L 147.574 44.982 C 147.48 44.642 147.395 44.333 147.274 44.02 C 147.169 43.699 147.065 43.382 146.933 43.087 C 146.695 42.471 146.425 41.852 146.103 41.281 C 145.451 40.122 144.656 38.973 143.461 38.157 L 143.04 37.882 L 142.722 38.274 C 142.56 38.457 142.454 38.604 142.337 38.772 C 142.232 38.935 142.12 39.119 142.019 39.282 C 141.818 39.624 141.633 39.963 141.469 40.312 C 141.124 41.013 140.812 41.723 140.574 42.458 C 140.301 43.19 140.094 43.918 139.891 44.66 C 139.704 45.399 139.555 46.161 139.415 46.9 L 139.384 47.078 Z M 156.151 45.672 C 156.464 46.213 156.803 46.663 157.158 47.109 C 157.51 47.556 157.88 47.998 158.261 48.417 C 158.862 49.106 159.471 49.763 160.12 50.387 C 160.215 50.493 160.31 50.599 160.402 50.689 L 160.415 50.685 C 160.467 50.752 160.535 50.815 160.603 50.878 C 160.613 50.86 160.639 50.836 160.649 50.815 L 160.661 50.795 C 161.024 50.272 161.387 49.747 161.709 49.201 C 161.878 48.92 162.04 48.622 162.207 48.338 C 162.369 48.041 162.534 47.743 162.681 47.448 C 162.974 46.846 163.284 46.256 163.537 45.631 C 163.823 45.012 164.037 44.364 164.27 43.729 L 164.321 43.616 L 164.271 43.445 C 164.18 43.106 164.094 42.798 163.972 42.484 C 163.871 42.181 163.767 41.86 163.632 41.552 C 163.396 40.938 163.113 40.337 162.8 39.746 C 162.148 38.588 161.354 37.438 160.163 36.638 L 159.737 36.348 L 159.422 36.739 C 159.257 36.922 159.151 37.068 159.038 37.253 C 158.921 37.42 158.819 37.585 158.716 37.747 C 158.518 38.09 158.335 38.443 158.15 38.781 C 157.821 39.478 157.515 40.201 157.258 40.93 C 157.001 41.655 156.796 42.396 156.593 43.141 C 156.405 43.88 156.252 44.626 156.117 45.381 L 156.081 45.543 Z M 173.61 43.813 C 173.878 44.302 174.189 44.709 174.519 45.129 C 174.843 45.532 175.165 45.922 175.521 46.316 C 176.054 46.927 176.628 47.524 177.216 48.102 C 177.291 48.196 177.383 48.286 177.469 48.36 C 177.536 48.424 177.584 48.478 177.651 48.541 L 177.698 48.476 L 177.71 48.458 C 178.034 47.978 178.363 47.514 178.652 47.013 C 178.812 46.765 178.949 46.49 179.105 46.229 C 179.247 45.97 179.402 45.708 179.535 45.417 C 179.795 44.874 180.088 44.338 180.309 43.774 C 180.563 43.215 180.76 42.624 180.979 42.059 L 181.015 41.948 L 180.987 41.79 C 180.901 41.481 180.81 41.209 180.712 40.921 C 180.615 40.632 180.507 40.363 180.396 40.08 C 180.171 39.512 179.923 38.969 179.642 38.435 C 179.051 37.375 178.337 36.336 177.245 35.605 L 176.864 35.351 L 176.569 35.705 C 176.421 35.883 176.326 36.012 176.22 36.158 C 176.118 36.322 176.026 36.467 175.938 36.624 C 175.747 36.931 175.587 37.244 175.429 37.558 C 175.115 38.202 174.852 38.845 174.608 39.5 C 174.383 40.168 174.193 40.839 174.005 41.514 C 173.829 42.181 173.707 42.868 173.567 43.542 L 173.545 43.697 Z M 189.798 43.98 C 190.027 44.394 190.271 44.738 190.546 45.074 C 190.816 45.396 191.076 45.735 191.359 46.053 C 191.811 46.553 192.277 47.049 192.769 47.52 L 192.798 47.563 C 192.863 47.626 192.91 47.678 192.974 47.728 L 192.979 47.743 L 192.994 47.738 C 193.041 47.79 193.084 47.829 193.132 47.881 L 193.167 47.836 L 193.179 47.817 C 193.451 47.437 193.704 47.047 193.947 46.623 C 194.085 46.416 194.204 46.197 194.324 45.979 C 194.443 45.76 194.562 45.541 194.678 45.307 C 194.903 44.874 195.122 44.428 195.317 43.952 C 195.534 43.49 195.681 43.012 195.877 42.539 L 195.899 42.446 L 195.865 42.324 C 195.798 42.077 195.732 41.847 195.649 41.604 C 195.57 41.378 195.484 41.137 195.39 40.914 C 195.212 40.449 195.002 39.994 194.764 39.548 C 194.278 38.689 193.695 37.828 192.789 37.229 L 192.484 37.019 L 192.239 37.308 C 192.112 37.445 192.043 37.549 191.95 37.692 C 191.871 37.816 191.79 37.94 191.709 38.063 C 191.569 38.321 191.428 38.581 191.301 38.833 C 191.037 39.36 190.81 39.895 190.616 40.436 C 190.422 40.977 190.267 41.54 190.122 42.081 C 189.982 42.641 189.877 43.204 189.773 43.77 L 189.741 43.896 Z M 206.071 46.103 C 206.256 46.533 206.475 46.9 206.707 47.266 C 206.939 47.631 207.169 47.98 207.426 48.32 C 207.812 48.875 208.206 49.409 208.641 49.914 C 208.697 49.997 208.773 50.092 208.859 50.166 L 208.864 50.182 C 208.896 50.238 208.942 50.292 208.99 50.344 L 209.028 50.299 C 209.337 49.94 209.64 49.553 209.93 49.184 C 210.074 48.992 210.228 48.777 210.367 48.57 C 210.507 48.363 210.665 48.167 210.784 47.948 C 211.06 47.518 211.337 47.103 211.575 46.666 C 211.814 46.229 212.028 45.765 212.249 45.315 L 212.304 45.217 L 212.29 45.104 C 212.247 44.833 212.182 44.604 212.128 44.351 C 212.078 44.116 212.015 43.885 211.947 43.639 C 211.812 43.161 211.666 42.688 211.472 42.228 C 211.068 41.313 210.568 40.393 209.75 39.701 L 209.452 39.455 L 209.182 39.719 C 209.051 39.839 208.968 39.949 208.851 40.066 C 208.771 40.19 208.67 40.303 208.591 40.425 C 208.406 40.646 208.246 40.894 208.084 41.142 C 207.777 41.633 207.496 42.148 207.264 42.667 C 207.011 43.175 206.802 43.72 206.588 44.25 C 206.394 44.79 206.236 45.338 206.06 45.888 L 206.03 46.015 Z M 222.856 49.594 C 223.041 50.021 223.258 50.392 223.492 50.757 C 223.725 51.122 223.968 51.467 224.211 51.812 C 224.614 52.375 225.029 52.921 225.474 53.457 L 225.478 53.473 C 225.529 53.54 225.577 53.592 225.629 53.66 C 225.676 53.714 225.728 53.781 225.775 53.836 L 225.813 53.79 C 226.122 53.432 226.425 53.042 226.715 52.675 C 226.871 52.461 227.013 52.27 227.152 52.062 C 227.306 51.85 227.45 51.658 227.585 51.436 C 227.847 51.022 228.122 50.592 228.356 50.139 C 228.615 49.713 228.815 49.256 229.051 48.803 L 229.089 48.708 L 229.07 48.579 C 229.032 48.324 228.982 48.088 228.929 47.838 C 228.865 47.605 228.796 47.36 228.73 47.128 C 228.598 46.652 228.451 46.179 228.257 45.719 C 227.854 44.804 227.366 43.88 226.535 43.19 L 226.237 42.944 L 225.967 43.208 C 225.836 43.33 225.751 43.438 225.651 43.551 C 225.552 43.663 225.457 43.792 225.372 43.9 C 225.191 44.137 225.031 44.385 224.885 44.628 C 224.564 45.122 224.297 45.636 224.049 46.158 C 223.796 46.666 223.587 47.211 223.389 47.736 C 223.179 48.282 223.021 48.827 222.861 49.375 L 222.829 49.501 Z M 241.194 43.523 C 240.047 42.994 238.864 42.577 237.698 42.104 C 228.358 38.369 218.752 35.914 209.385 34.206 C 207.034 33.832 204.726 33.379 202.396 33.081 C 200.073 32.815 197.783 32.54 195.5 32.295 C 193.232 32.047 190.968 31.981 188.736 31.804 C 187.618 31.733 186.505 31.68 185.416 31.598 C 184.305 31.56 183.207 31.566 182.116 31.537 C 179.943 31.51 177.803 31.475 175.675 31.434 C 173.569 31.472 171.48 31.568 169.444 31.621 C 165.343 31.677 161.396 32.056 157.623 32.351 C 156.674 32.414 155.743 32.488 154.812 32.563 C 153.886 32.653 152.986 32.784 152.08 32.883 C 150.274 33.115 148.515 33.334 146.804 33.555 C 143.371 33.949 140.146 34.616 137.109 35.144 C 135.593 35.407 134.123 35.673 132.701 35.926 C 131.299 36.189 129.951 36.536 128.652 36.818 C 126.043 37.404 123.651 37.94 121.506 38.423 C 117.2 39.46 113.883 40.504 111.591 41.112 C 109.31 41.75 108.093 42.093 108.093 42.093 C 108.093 42.093 109.325 41.813 111.631 41.317 C 113.957 40.83 117.329 40.037 121.646 39.167 C 123.813 38.761 126.221 38.335 128.831 37.866 C 130.143 37.63 131.49 37.351 132.91 37.147 C 134.335 36.963 135.805 36.762 137.323 36.563 C 140.364 36.169 143.578 35.64 147.007 35.396 C 150.428 35.137 154.008 34.616 157.767 34.51 C 161.52 34.321 165.426 34.037 169.477 34.093 C 171.496 34.1 173.552 34.06 175.646 34.093 C 177.734 34.179 179.855 34.253 181.999 34.355 C 190.575 34.813 199.609 35.736 208.776 37.553 C 217.945 39.32 227.256 41.946 236.335 45.572 C 237.467 46.039 238.614 46.451 239.723 46.959 L 243.024 48.503 C 245.245 49.465 247.434 50.788 249.656 51.934 C 251.725 53.126 253.854 54.532 255.967 55.81 C 257.635 56.852 259.208 58.023 260.822 59.164 C 261.232 59.459 261.663 59.768 262.089 60.059 C 270.146 65.903 277.454 72.769 283.959 80.223 C 290.049 87.131 295.625 94.373 301.184 101.371 C 301.589 101.885 301.99 102.383 302.396 102.897 C 308.335 110.385 314.423 117.343 320.881 123.393 C 322.501 124.849 324.112 126.275 325.688 127.695 C 327.317 129.131 329.004 130.353 330.627 131.642 L 331.844 132.6 C 332.254 132.895 332.676 133.172 333.102 133.463 C 333.934 134.035 334.765 134.608 335.592 135.162 C 337.21 136.321 338.907 137.288 340.568 138.248 C 347.175 142.12 353.666 144.81 359.529 146.716 C 365.421 148.614 370.692 149.696 375.052 150.395 C 377.989 150.863 380.52 151.118 382.573 151.247 C 382.151 151.321 381.726 151.382 381.248 151.438 C 376.828 152.056 370.186 152.297 362.009 150.737 C 353.826 149.214 344.214 145.794 333.985 140.288 C 323.759 134.781 312.929 127.287 301.871 118.156 C 296.354 113.597 290.781 108.605 285.198 103.23 C 283.819 101.869 282.424 100.513 281.021 99.126 C 279.604 97.742 278.092 96.322 276.505 95.038 C 273.305 92.445 269.797 90.212 266.073 88.275 C 258.62 84.419 250.389 81.777 241.884 79.932 C 233.355 78.108 224.524 77.026 215.535 76.44 C 213.782 76.323 212.03 76.222 210.284 76.136 C 210.269 76.192 210.25 76.246 210.232 76.303 L 209.838 76.118 C 209.209 75.803 208.582 75.438 207.936 75.178 C 207.277 74.939 206.619 74.698 205.956 74.495 L 203.976 73.977 C 203.317 73.855 202.63 73.74 201.972 73.618 C 201.3 73.499 200.64 73.427 199.961 73.344 C 199.296 73.256 198.631 73.168 197.962 73.116 C 196.611 72.98 195.269 72.927 193.934 72.853 C 193.253 72.818 192.579 72.816 191.917 72.796 C 191.24 72.777 190.582 72.771 189.913 72.787 C 188.567 72.782 187.226 72.794 185.896 72.853 C 183.21 72.976 180.541 73.113 177.884 73.413 L 181.884 73.468 C 183.221 73.49 184.549 73.549 185.878 73.607 C 187.206 73.666 188.547 73.706 189.868 73.799 C 190.334 73.828 190.803 73.857 191.254 73.892 C 191.454 73.897 191.657 73.923 191.855 73.93 C 192.527 73.983 193.19 74.004 193.849 74.076 L 195.836 74.259 L 197.804 74.495 C 198.464 74.567 199.113 74.66 199.767 74.768 C 200.421 74.874 201.065 74.953 201.71 75.095 C 202.356 75.236 202.995 75.35 203.628 75.496 L 205.523 76.005 C 206.135 76.192 206.728 76.434 207.324 76.641 C 207.604 76.761 207.852 76.887 208.106 77.028 L 207.818 77.297 C 207.426 77.597 207.079 77.933 206.666 78.219 L 206.066 78.663 C 205.861 78.807 205.675 78.963 205.465 79.091 L 204.2 79.914 C 203.788 80.2 203.33 80.437 202.891 80.683 L 201.591 81.433 L 199.082 82.738 L 196.42 82.305 L 194.233 81.816 L 193.537 81.672 C 192.568 81.489 191.617 81.203 190.652 80.971 C 189.698 80.734 188.731 80.502 187.787 80.23 L 182.68 78.853 L 182.04 78.674 L 176.319 77.04 C 178.143 77.819 180.011 78.521 181.88 79.22 L 182.502 79.454 C 177.329 79.609 172.141 79.823 166.911 80.13 C 166.947 80.085 166.988 80.056 167.026 80.013 L 167.655 79.328 C 168.104 78.877 168.486 78.365 168.893 77.878 L 169.456 77.078 C 169.553 76.95 169.643 76.808 169.73 76.647 C 169.789 76.564 169.849 76.479 169.902 76.38 C 169.934 76.321 169.963 76.246 170.006 76.165 L 170.511 75.151 L 169.496 74.867 C 168.683 74.655 167.883 74.373 167.066 74.216 C 166.251 74.105 165.444 73.977 164.63 73.882 L 162.198 73.749 C 161.409 73.747 160.601 73.785 159.798 73.79 C 158.995 73.792 158.197 73.878 157.404 73.911 C 156.602 73.981 155.797 74.033 155.02 74.13 C 153.424 74.283 151.846 74.514 150.271 74.745 C 149.481 74.86 148.704 75.007 147.92 75.138 C 147.135 75.269 146.357 75.415 145.582 75.577 C 144.027 75.884 142.465 76.229 140.923 76.582 C 137.838 77.342 134.757 78.115 131.728 79.075 L 136.411 78.228 C 137.959 77.955 139.528 77.693 141.083 77.452 C 141.386 77.414 141.667 77.364 141.967 77.326 C 143.227 77.137 144.498 76.93 145.767 76.771 C 146.554 76.657 147.331 76.563 148.108 76.465 C 148.887 76.37 149.673 76.256 150.455 76.175 L 152.804 75.949 L 155.146 75.76 C 155.912 75.683 156.708 75.649 157.485 75.62 C 158.265 75.591 159.04 75.546 159.815 75.568 C 160.589 75.572 161.373 75.559 162.148 75.579 L 164.457 75.735 C 165.2 75.816 165.946 75.963 166.699 76.073 C 167.047 76.139 167.366 76.227 167.691 76.332 L 167.414 76.697 C 167.03 77.144 166.686 77.612 166.282 78.048 L 165.674 78.692 C 165.471 78.904 165.291 79.141 165.065 79.339 L 163.773 80.585 C 163.366 81.007 162.874 81.367 162.428 81.767 L 161.085 82.945 L 158.447 85.023 L 155.261 85.129 L 152.626 85.089 L 151.77 85.073 C 150.602 85.066 149.425 84.963 148.262 84.906 C 147.097 84.85 145.934 84.791 144.76 84.703 L 137.752 84.219 L 135.805 84.059 L 130.718 83.64 C 132.264 83.95 133.808 84.246 135.372 84.503 C 131.271 85.51 127.186 86.68 123.142 88.005 C 123.223 87.832 123.311 87.672 123.408 87.494 L 123.888 86.619 C 124.196 86.026 124.451 85.402 124.737 84.784 L 125.109 83.824 C 125.152 83.68 125.193 83.533 125.233 83.39 C 125.245 83.369 125.252 83.333 125.263 83.313 C 125.314 83.148 125.364 82.966 125.414 82.735 L 125.642 81.55 L 124.544 81.557 C 123.646 81.572 122.745 81.521 121.88 81.593 C 121.008 81.699 120.146 81.787 119.301 81.936 L 116.783 82.494 C 115.956 82.704 115.147 82.977 114.324 83.202 C 113.499 83.428 112.72 83.741 111.913 84.029 C 111.104 84.3 110.313 84.584 109.53 84.897 C 107.945 85.515 106.399 86.202 104.854 86.892 C 104.076 87.221 103.325 87.593 102.557 87.951 C 101.788 88.312 101.037 88.684 100.278 89.074 C 98.776 89.815 97.271 90.593 95.793 91.411 C 92.854 93.045 89.905 94.713 87.09 96.56 L 91.627 94.357 C 93.135 93.645 94.663 92.946 96.193 92.261 C 97.068 91.868 97.945 91.479 98.835 91.082 C 99.476 90.794 100.134 90.501 100.794 90.221 C 101.552 89.881 102.333 89.567 103.115 89.254 C 103.88 88.93 104.637 88.589 105.424 88.292 L 107.747 87.39 L 110.105 86.545 C 110.876 86.252 111.669 85.983 112.454 85.735 C 113.254 85.485 114.029 85.206 114.825 85.003 C 115.623 84.803 116.425 84.565 117.223 84.365 L 119.607 83.862 C 120.412 83.741 121.213 83.673 122.006 83.572 C 122.376 83.547 122.721 83.545 123.083 83.556 L 122.912 84.005 C 122.628 84.572 122.428 85.149 122.123 85.706 L 121.682 86.536 C 121.53 86.813 121.397 87.104 121.226 87.37 L 120.25 88.99 C 119.945 89.547 119.549 90.065 119.204 90.6 L 118.132 92.166 L 116.028 95.035 L 112.785 96.059 L 110.063 96.76 L 109.203 96.98 C 108.002 97.316 106.78 97.526 105.581 97.814 C 104.362 98.09 103.158 98.36 101.945 98.602 L 94.634 100.089 L 89.962 100.981 L 87.297 101.484 C 88.763 101.385 90.248 101.247 91.718 101.099 C 87.8 103.053 83.932 105.074 80.114 107.2 L 80.164 107.087 C 80.355 106.713 80.506 106.318 80.66 105.924 L 81.135 104.75 C 81.48 103.981 81.721 103.143 81.992 102.345 L 82.109 101.878 L 82.325 101.064 C 82.384 100.864 82.413 100.621 82.454 100.409 C 82.503 100.179 82.544 99.967 82.573 99.658 L 82.706 98.135 L 81.322 98.292 C 80.195 98.423 79.05 98.495 77.955 98.685 C 76.896 98.946 75.798 99.188 74.748 99.478 L 71.655 100.506 C 70.65 100.902 69.658 101.347 68.657 101.757 C 67.652 102.153 66.692 102.651 65.718 103.106 C 64.747 103.56 63.777 104.028 62.822 104.543 C 60.908 105.507 59.044 106.589 57.191 107.653 C 56.256 108.178 55.352 108.76 54.439 109.314 C 53.522 109.851 52.618 110.433 51.714 111.016 C 49.907 112.182 48.119 113.36 46.359 114.577 C 42.861 117.041 39.37 119.521 36.056 122.231 L 41.497 118.859 C 43.303 117.746 45.148 116.65 46.981 115.578 C 48.823 114.534 50.648 113.43 52.515 112.413 C 53.15 112.044 53.804 111.686 54.446 111.345 C 54.73 111.178 55.014 111.027 55.3 110.876 C 56.24 110.367 57.158 109.828 58.093 109.355 L 60.919 107.903 L 63.764 106.515 C 64.713 106.037 65.675 105.602 66.642 105.185 C 67.593 104.771 68.547 104.306 69.529 103.95 C 70.508 103.578 71.479 103.177 72.448 102.825 L 75.412 101.867 C 76.406 101.608 77.398 101.398 78.385 101.175 C 78.838 101.092 79.285 101.042 79.749 101.006 L 79.573 101.608 C 79.305 102.354 79.12 103.109 78.798 103.837 L 78.354 104.95 C 78.209 105.312 78.085 105.696 77.892 106.055 L 76.875 108.239 C 76.557 108.982 76.143 109.67 75.766 110.383 L 74.624 112.52 L 72.347 116.423 L 68.396 118.139 L 65.064 119.369 L 63.978 119.772 C 62.518 120.354 61.017 120.796 59.522 121.318 C 58.039 121.823 56.554 122.328 55.046 122.804 L 46.032 125.66 L 38.955 127.813 L 38.425 127.501 C 38.038 127.282 37.674 127.039 37.278 126.856 L 34.882 125.728 L 33.635 125.261 C 33.203 125.123 32.813 124.954 32.369 124.835 L 31.073 124.483 C 30.588 124.394 30.214 124.285 29.657 124.233 L 29.405 124.208 L 29.227 124.275 L 25.681 125.621 C 25.084 125.831 24.514 126.081 23.957 126.379 L 22.257 127.229 L 20.574 128.076 L 18.96 129.052 C 17.898 129.715 16.803 130.321 15.787 131.087 C 14.777 131.817 13.715 132.48 12.746 133.301 C 11.783 134.083 10.78 134.845 9.85 135.686 C 8.921 136.528 7.961 137.326 7.073 138.205 C 6.162 139.058 5.299 139.961 4.456 140.876 C 5.414 140.078 6.385 139.325 7.373 138.568 C 8.335 137.784 9.367 137.078 10.363 136.353 C 11.36 135.627 12.406 134.967 13.429 134.283 C 14.452 133.599 15.532 132.996 16.562 132.343 C 17.594 131.687 18.71 131.159 19.783 130.594 L 21.396 129.735 L 23.076 128.989 L 24.744 128.266 C 24.759 128.261 24.789 128.252 24.805 128.247 C 25.341 127.988 25.873 127.783 26.434 127.616 L 29.594 126.534 C 29.867 126.572 30.221 126.667 30.518 126.73 L 31.668 127.091 C 32.058 127.192 32.418 127.37 32.806 127.523 L 33.946 127.97 L 36.155 129.07 C 36.527 129.228 36.876 129.476 37.23 129.688 L 38.308 130.321 L 39.372 130.957 L 40.391 131.673 L 42.435 133.123 C 42.78 133.355 43.075 133.65 43.406 133.902 L 44.384 134.698 L 44.874 135.104 L 44.245 135.439 C 43.492 135.861 42.653 136.143 41.869 136.506 C 41.064 136.859 40.244 137.152 39.423 137.443 C 38.599 137.721 37.79 138.059 36.938 138.293 L 34.404 139.039 L 31.844 139.677 C 30.989 139.911 30.135 140.08 29.272 140.283 C 28.406 140.473 27.545 140.676 26.682 140.815 C 25.409 141.072 24.11 141.305 22.821 141.501 C 22.368 141.584 21.901 141.672 21.444 141.739 C 19.686 142.025 17.93 142.258 16.174 142.492 C 12.653 142.98 9.101 143.309 5.558 143.604 C 7.33 143.714 9.117 143.772 10.902 143.764 C 12.688 143.752 14.468 143.728 16.267 143.648 C 17.161 143.619 18.054 143.59 18.935 143.514 C 18.967 143.504 18.985 143.516 19.016 143.507 C 15.347 145.821 11.612 147.904 7.74 149.728 C 6.667 150.228 5.587 150.712 4.499 151.168 L 3.762 150.401 L 2.768 149.543 L 1.76 148.69 C 1.417 148.406 1.102 148.1 .739 147.856 L -1.414 146.306 L -2.556 145.625 C -2.944 145.406 -3.311 145.149 -3.722 144.97 L -4.937 144.377 C -5.394 144.212 -5.739 144.029 -6.291 143.876 L -6.525 143.795 L -6.712 143.833 L -10.427 144.512 C -11.056 144.613 -11.671 144.76 -12.257 144.949 L -14.081 145.472 L -15.886 146.002 L -17.64 146.653 C -18.803 147.129 -19.988 147.527 -21.111 148.091 C -22.24 148.625 -23.405 149.101 -24.499 149.707 C -25.589 150.327 -26.696 150.889 -27.762 151.535 C -28.824 152.197 -29.903 152.8 -30.938 153.505 C -31.979 154.179 -32.987 154.925 -33.98 155.65 C -32.901 155.051 -31.794 154.49 -30.708 153.92 C -29.628 153.318 -28.483 152.831 -27.393 152.276 C -26.277 151.747 -25.118 151.308 -23.996 150.81 C -22.867 150.327 -21.715 149.921 -20.574 149.484 C -19.445 149.002 -18.266 148.704 -17.107 148.33 L -15.356 147.78 L -13.587 147.358 L -12.881 147.185 L -11.833 146.941 C -11.238 146.784 -10.641 146.691 -10.053 146.619 L -6.697 146.13 C -6.437 146.236 -6.135 146.38 -5.874 146.488 L -4.814 147.059 C -4.456 147.221 -4.109 147.469 -3.769 147.686 L -2.732 148.346 L -.746 149.826 C -.401 150.061 -.122 150.36 .196 150.618 L 1.147 151.438 L 2.083 152.263 L 2.957 153.172 L 4.544 154.804 L 4.702 154.959 C 4.999 155.254 5.243 155.599 5.526 155.917 L 6.335 156.877 L 6.752 157.373 L 6.074 157.589 C 5.261 157.844 4.397 157.981 3.55 158.182 C 2.707 158.396 1.844 158.533 .98 158.671 C .126 158.791 -.724 158.973 -1.605 159.05 L -4.22 159.32 L -6.845 159.494 C -7.731 159.555 -8.61 159.579 -9.489 159.606 C -10.366 159.631 -11.256 159.677 -12.145 159.672 C -13.44 159.67 -14.752 159.672 -16.057 159.641 C -16.515 159.643 -16.979 159.629 -17.441 159.615 C -19.208 159.568 -20.971 159.487 -22.751 159.395 C -26.304 159.241 -29.84 158.917 -33.388 158.545 C -31.659 158.984 -29.91 159.37 -28.154 159.67 C -27.669 159.76 -27.185 159.853 -26.705 159.927 C -31.774 160.687 -36.812 161.152 -41.768 161.38 C -49.927 161.766 -57.834 161.412 -65.577 161.058 C -66.593 161.009 -67.574 161.013 -68.522 161.026 C -69.426 161.026 -70.33 160.959 -71.243 160.862 C -73.08 160.687 -74.915 160.341 -76.743 160.015 C -80.394 159.338 -84.021 158.624 -87.611 158.216 C -91.227 157.778 -94.799 157.614 -98.319 157.934 C -101.8 158.276 -105.043 158.766 -108.298 158.973 C -114.775 159.448 -120.965 159.32 -126.753 158.976 C -132.562 158.671 -137.955 158.092 -143.006 157.747 C -148.073 157.456 -152.712 157.589 -156.895 157.819 C -160.995 158.061 -164.64 158.4 -167.807 158.752 C -168.097 158.888 -168.383 159.036 -168.674 159.174 C -169.725 159.699 -170.791 160.23 -171.882 160.735 C -172.585 161.092 -173.306 161.387 -174.032 161.669 L -176.22 162.53 C -177.704 163.035 -179.236 163.418 -180.733 163.875 C -182.241 164.354 -183.755 164.567 -185.263 164.928 L -189.814 165.901 C -191.304 166.206 -192.789 166.528 -194.259 166.961 C -195.733 167.328 -197.18 167.838 -198.623 168.313 C -200.062 168.805 -201.469 169.402 -202.892 169.954 C -204.295 170.567 -205.702 171.167 -207.045 171.879 C -208.427 172.52 -209.752 173.292 -211.087 174.036 C -212.415 174.81 -213.717 175.611 -214.991 176.452 C -216.262 177.312 -217.493 178.19 -218.712 179.116 C -219.916 180.038 -221.13 181.03 -222.187 182.009 L -224.921 184.563 L -224.268 181.019 C -224.2 180.732 -224.15 180.436 -224.083 180.149 C -223.977 179.768 -223.88 179.405 -223.731 179.112 L -223.371 178.287 L -222.958 177.532 C -222.686 177.036 -222.395 176.55 -222.09 176.109 C -221.775 175.65 -221.5 175.17 -221.162 174.737 C -219.92 172.952 -218.559 171.302 -217.197 169.65 C -214.436 166.37 -211.564 163.256 -208.657 160.149 C -205.758 157.062 -202.824 153.996 -199.86 150.972 L -198.25 149.331 C -201.224 146.723 -205.42 142.375 -208.164 136.647 C -208.585 135.787 -208.301 134.738 -207.53 134.211 C -207.462 134.157 -207.381 134.099 -207.293 134.058 C -206.36 133.582 -205.215 133.98 -204.755 134.926 C -202.229 140.233 -198.174 144.307 -195.454 146.657 L -195.282 146.507 C -195.083 146.331 -194.901 146.162 -194.719 145.99 C -197.326 141.458 -200.899 134.342 -202.008 127.765 C -202.129 127.035 -201.816 126.275 -201.214 125.847 C -200.978 125.696 -200.714 125.583 -200.448 125.538 C -199.95 125.441 -199.44 125.559 -199.03 125.854 C -198.62 126.151 -198.352 126.589 -198.26 127.094 C -197.311 132.8 -194.196 139.152 -191.772 143.438 L -190.366 142.357 C -188.719 140.971 -186.854 139.889 -185.062 138.729 C -184.181 138.117 -183.224 137.619 -182.272 137.139 L -179.439 135.653 L -176.491 134.4 L -175.003 133.797 L -173.479 133.314 C -172.468 133.001 -171.469 132.638 -170.426 132.381 L -167.288 131.691 C -165.228 131.317 -163.064 131.247 -161.137 130.813 C -159.156 130.328 -157.229 129.527 -155.376 128.581 C -153.528 127.621 -151.756 126.498 -150.043 125.292 C -148.725 124.37 -147.449 123.413 -146.218 122.416 C -145.819 122.08 -145.434 121.751 -145.051 121.423 C -145.526 121.896 -146.006 122.354 -146.5 122.815 C -146.964 123.503 -147.449 124.179 -147.934 124.855 C -148.558 125.738 -149.223 126.586 -149.89 127.432 C -150.559 128.263 -151.269 129.072 -152 129.87 C -152.716 130.65 -153.469 131.421 -154.285 132.145 C -154.68 132.494 -155.119 132.807 -155.527 133.161 C -155.966 133.472 -156.417 133.74 -156.875 134.04 C -156.408 133.77 -155.919 133.526 -155.473 133.244 C -155.038 132.918 -154.576 132.631 -154.164 132.291 C -153.3 131.621 -152.5 130.902 -151.709 130.152 C -150.956 129.379 -150.206 128.592 -149.482 127.778 C -148.772 126.97 -148.071 126.129 -147.39 125.279 C -146.04 123.582 -144.76 121.819 -143.541 120.009 C -142.937 119.114 -142.357 118.194 -141.787 117.241 C -141.499 116.741 -141.237 116.214 -141 115.761 L -140.856 115.517 L -140.604 115.244 C -140.461 115.051 -140.279 114.882 -140.085 114.689 C -138.618 113.24 -136.875 111.96 -135.158 110.705 C -133.422 109.461 -131.653 108.272 -129.846 107.105 C -126.262 104.784 -122.567 102.611 -118.839 100.563 L -118.544 100.393 L -118.375 99.992 L -117.694 98.373 C -117.683 98.355 -117.676 98.319 -117.665 98.299 C -115.355 95.7 -105.505 85.246 -96.097 83.743 C -82.851 85.894 -64.19 101.185 -63.584 112.792 C -62.466 104.193 -66.771 96.692 -72.846 90.548 C -65.227 89.569 -58.914 93.512 -58.914 93.512 C -56.092 100.465 -55.747 107.883 -56.029 113.233 C -56.142 113.833 -56.272 114.422 -56.385 115.021 C -56.556 115.938 -56.815 116.833 -57.041 117.732 C -57.262 118.647 -57.5 119.552 -57.796 120.439 C -58.075 121.321 -58.314 122.225 -58.648 123.09 L -59.619 125.728 C -59.933 126.605 -60.336 127.456 -60.686 128.326 C -61.053 129.185 -61.42 130.041 -61.842 130.885 L -62.854 132.965 L -66.275 132.572 C -67.594 132.494 -68.926 132.487 -70.233 132.439 C -71.563 132.381 -72.884 132.469 -74.191 132.487 C -75.512 132.51 -76.814 132.543 -78.135 132.634 C -80.759 132.755 -83.38 132.944 -85.993 133.163 C -88.605 133.384 -91.215 133.67 -93.818 133.986 C -91.204 133.833 -88.591 133.729 -85.963 133.623 C -83.347 133.535 -80.725 133.463 -78.118 133.461 C -76.801 133.423 -75.51 133.461 -74.191 133.487 C -73.179 133.523 -72.147 133.52 -71.132 133.571 C -72.773 133.688 -74.52 133.835 -76.278 134.004 C -79.844 134.338 -83.41 134.721 -86.092 135.045 C -87.422 135.219 -88.535 135.348 -89.311 135.442 C -89.784 135.514 -90.131 135.565 -90.332 135.608 C -90.126 135.582 -89.775 135.546 -89.311 135.507 C -88.524 135.444 -87.417 135.352 -86.072 135.236 C -83.385 135.048 -79.81 134.811 -76.231 134.64 C -72.654 134.468 -69.075 134.364 -66.408 134.396 C -65.076 134.405 -63.979 134.464 -63.219 134.54 C -62.836 134.561 -62.585 134.638 -62.396 134.664 C -62.209 134.693 -62.105 134.712 -62.105 134.712 L -62.067 134.552 L -62.051 134.547 L -61.817 134.094 L -60.505 131.556 C -60.05 130.722 -59.637 129.85 -59.259 128.973 C -58.875 128.109 -58.443 127.249 -58.082 126.358 L -57.021 123.694 C -56.66 122.807 -56.39 121.892 -56.069 120.98 C -55.745 120.086 -55.479 119.157 -55.224 118.249 C -54.958 117.318 -54.672 116.4 -54.474 115.458 C -54.277 114.519 -54.027 113.595 -53.865 112.646 C -53.701 111.696 -53.509 110.741 -53.365 109.78 C -53.252 108.832 -53.139 107.881 -53.047 106.921 C -52.988 105.951 -52.914 104.98 -52.887 104.021 C -52.894 103.058 -52.833 102.088 -52.891 101.123 C -52.95 100.141 -52.957 99.174 -53.079 98.209 C -53.168 97.237 -53.304 96.277 -53.491 95.314 C -53.646 94.344 -53.896 93.383 -54.163 92.428 C -54.327 91.959 -54.46 91.48 -54.638 91.017 L -55.222 89.624 L -55.344 89.309 L -55.655 89.133 L -58.109 87.739 C -58.92 87.243 -59.759 86.824 -60.609 86.426 C -61.208 86.152 -61.785 85.855 -62.367 85.592 C -62.633 85.454 -62.895 85.348 -63.171 85.229 L -65.777 84.181 C -65.836 84.146 -65.906 84.133 -65.964 84.102 L -65.982 84.09 C -65.998 84.095 -66.002 84.079 -66.018 84.084 C -66.8 83.748 -67.616 83.522 -68.421 83.225 C -68.691 83.137 -68.966 83.035 -69.253 82.952 C -68.254 82.592 -67.123 82.177 -65.878 81.692 C -65.464 81.536 -65.051 81.365 -64.609 81.185 C -61.803 80.074 -58.58 78.624 -55.206 76.963 C -53.527 76.103 -51.778 75.255 -50.067 74.268 C -49.199 73.794 -48.318 73.301 -47.45 72.829 C -46.594 72.309 -45.722 71.786 -44.867 71.268 C -43.129 70.256 -41.464 69.115 -39.81 68.044 C -38.132 66.999 -36.586 65.777 -35.047 64.706 C -33.492 63.631 -32.103 62.438 -30.74 61.387 C -29.372 60.35 -28.129 59.268 -26.998 58.267 C -25.884 57.257 -24.814 56.392 -23.923 55.528 C -23.047 54.67 -22.285 53.928 -21.649 53.324 C -20.709 52.397 -20.062 51.773 -19.808 51.514 C -20.083 51.762 -20.752 52.359 -21.724 53.23 C -22.379 53.822 -23.164 54.539 -24.083 55.359 C -24.992 56.159 -26.087 57 -27.248 57.958 C -28.414 58.9 -29.685 59.926 -31.1 60.911 C -32.498 61.904 -33.92 63.041 -35.495 64.039 C -37.066 65.051 -38.637 66.183 -40.353 67.154 C -42.039 68.166 -43.713 69.228 -45.489 70.149 C -46.357 70.623 -47.227 71.097 -48.09 71.583 C -48.985 72.029 -49.862 72.471 -50.739 72.913 C -52.474 73.81 -54.241 74.597 -55.93 75.36 C -59.329 76.88 -62.549 78.16 -65.34 79.149 C -68.124 80.171 -70.49 80.867 -72.142 81.354 C -72.645 81.484 -73.091 81.6 -73.454 81.708 L -73.758 81.613 L -73.794 81.606 L -73.898 81.586 C -73.7 81.529 -73.508 81.455 -73.326 81.401 C -71.933 80.926 -70.528 80.428 -69.183 79.849 C -66.863 78.98 -64.655 77.847 -62.407 76.785 C -60.23 75.593 -58.019 74.459 -55.918 73.106 C -54.848 72.474 -53.782 71.826 -52.767 71.109 C -51.733 70.406 -50.691 69.732 -49.679 69 L -46.677 66.767 C -45.676 66.005 -44.736 65.193 -43.758 64.406 C -42.775 63.634 -41.842 62.807 -40.907 61.981 C -39.976 61.141 -39.018 60.343 -38.114 59.459 L -35.405 56.876 L -32.752 54.212 C -31.03 52.387 -29.304 50.578 -27.672 48.663 C -26.006 46.806 -24.417 44.854 -22.839 42.922 L -20.518 39.953 L -18.275 36.927 C -16.808 34.894 -15.363 32.833 -13.979 30.741 C -13.711 30.348 -13.458 29.955 -13.197 29.545 C -11.266 28.526 -8.417 27.153 -4.715 25.661 C -.942 24.067 3.737 22.438 9.142 20.695 C 14.572 19.046 20.72 17.27 27.518 15.649 C 29.211 15.25 30.942 14.807 32.72 14.416 C 34.483 14.031 36.295 13.647 38.137 13.256 C 41.795 12.426 45.633 11.779 49.553 11.009 C 53.475 10.253 57.545 9.672 61.681 8.969 C 65.831 8.38 70.07 7.765 74.382 7.161 C 76.909 6.868 79.449 6.568 82.01 6.282 C 83.851 6.057 85.71 5.84 87.57 5.626 C 89.788 5.407 92.026 5.197 94.284 4.999 L 94.301 4.995 C 96.536 4.785 98.811 4.582 101.078 4.363 C 105.656 4.015 110.27 3.674 114.901 3.343 C 117.174 3.257 119.466 3.181 121.754 3.09 C 124.048 3.081 126.347 3.153 128.65 3.176 C 137.842 3.436 147.011 4.553 155.91 6.35 C 162.205 7.627 168.363 9.183 174.329 10.992 C 176.8 11.731 179.231 12.514 181.627 13.344 C 189.815 16.181 197.59 19.359 204.822 22.713 C 212.03 26.092 218.728 29.588 224.786 33.021 C 231.998 37.129 238.356 41.109 243.681 44.676 Z M 407.8 145.233 C 407.946 145.106 408.077 144.985 408.221 144.859 C 408.191 144.868 408.16 144.877 408.126 144.87 C 407.973 144.915 407.829 144.924 407.673 144.953 L 406.292 145.177 L 405.277 145.242 L 404.892 145.271 C 403.954 145.382 403.039 145.335 402.117 145.323 C 401.042 145.289 399.972 145.222 398.905 145.103 C 396.315 144.813 393.773 144.279 391.289 143.61 C 389.547 143.123 387.805 142.587 386.109 141.97 C 385.799 141.861 385.506 141.748 385.192 141.622 C 383.793 141.136 382.411 140.592 381.057 140.024 C 379.387 139.332 377.761 138.562 376.125 137.809 C 374.5 137.038 372.895 136.227 371.288 135.401 C 369.71 134.565 368.112 133.718 366.553 132.827 C 364.977 131.941 363.441 131.026 361.894 130.116 C 358.814 128.254 355.785 126.329 352.806 124.341 C 346.963 120.444 341.274 116.335 335.777 111.97 C 335.648 111.856 335.507 111.767 335.378 111.653 L 332.024 108.974 L 336.25 109.661 C 336.403 109.684 336.552 109.69 336.722 109.706 C 337.461 109.706 338.306 109.508 339.126 109.149 C 340.127 108.737 341.13 108.158 342.106 107.538 C 344.051 106.28 345.942 104.824 347.855 103.393 C 349.751 101.95 351.692 100.494 353.721 99.181 C 353.731 99.16 353.731 99.16 353.748 99.155 C 354.291 98.813 354.85 98.464 355.413 98.133 L 355.429 98.128 C 355.835 97.875 356.259 97.632 356.691 97.422 C 357.191 97.156 357.696 96.908 358.227 96.688 C 358.312 96.645 358.418 96.613 358.506 96.57 C 358.596 96.543 358.684 96.503 358.773 96.476 C 357.92 95.759 357.052 95.064 356.099 94.463 C 356.035 94.416 355.952 94.355 355.875 94.312 C 354.6 93.388 353.193 92.635 351.822 91.837 C 351.083 91.422 350.321 91.096 349.56 90.719 C 348.813 90.341 348.065 89.943 347.274 89.642 C 345.734 88.997 344.168 88.325 342.577 87.794 C 340.999 87.191 339.37 86.702 337.758 86.211 C 336.14 85.704 334.492 85.323 332.858 84.872 C 331.217 84.521 329.571 84.088 327.899 83.797 C 326.233 83.473 324.584 83.142 322.904 82.885 C 321.232 82.596 319.542 82.409 317.869 82.186 C 316.179 82.001 314.486 81.813 312.8 81.712 L 310.26 81.543 L 307.731 81.471 C 306.022 81.408 304.344 81.503 302.626 81.458 L 300.059 81.431 C 299.207 81.431 298.351 81.417 297.498 81.302 C 295.801 81.102 294.074 81.027 292.413 80.599 C 290.948 80.347 289.532 79.914 288.138 79.44 C 288.953 80.369 289.758 81.313 290.513 82.258 L 290.529 82.253 C 293.754 82.355 303.272 82.718 312.726 83.734 C 315.629 84.029 318.519 84.395 321.228 84.813 C 322.589 84.996 323.89 85.246 325.115 85.468 C 326.369 85.666 327.514 85.945 328.589 86.162 C 329.666 86.378 330.631 86.66 331.483 86.892 C 332.362 87.102 333.095 87.318 333.694 87.525 C 334.761 87.879 335.414 88.103 335.561 88.158 C 335.419 88.118 334.742 87.934 333.674 87.631 C 333.065 87.444 332.299 87.286 331.429 87.108 C 330.563 86.948 329.597 86.716 328.508 86.569 C 327.429 86.405 326.266 86.18 325.034 86.058 C 323.795 85.907 322.48 85.727 321.126 85.628 C 318.41 85.359 315.512 85.147 312.606 85.019 C 306.8 84.729 300.987 84.643 296.633 84.674 C 295.041 84.677 293.653 84.701 292.53 84.732 C 292.9 85.175 293.254 85.618 293.607 86.064 C 294.264 86.89 294.92 87.712 295.56 88.542 C 295.758 88.783 295.956 89.024 296.142 89.27 C 296.687 89.292 298.353 89.319 300.62 89.45 C 303.415 89.595 307.132 89.917 310.826 90.462 C 312.653 90.724 314.488 91.066 316.197 91.432 C 317.044 91.647 317.854 91.842 318.643 92.026 C 319.396 92.256 320.128 92.473 320.793 92.678 C 322.118 93.138 323.202 93.501 323.943 93.865 C 324.491 94.123 324.868 94.294 325.034 94.361 C 324.872 94.31 324.474 94.177 323.91 93.976 C 323.155 93.681 322.025 93.396 320.685 93.059 C 320.024 92.921 319.278 92.772 318.512 92.614 C 317.725 92.497 316.902 92.373 316.062 92.238 C 314.344 92.026 312.507 91.851 310.688 91.735 C 307.019 91.517 303.334 91.535 300.581 91.611 C 299.59 91.639 298.733 91.69 298.039 91.729 C 298.265 92.013 298.477 92.299 298.699 92.567 C 299.168 93.196 299.655 93.82 300.124 94.447 C 300.482 94.909 300.836 95.355 301.179 95.822 C 301.637 95.869 302.236 95.96 302.919 96.059 C 304.578 96.305 306.777 96.724 308.962 97.197 C 310.034 97.463 311.121 97.711 312.117 97.983 C 313.12 98.288 314.061 98.545 314.855 98.811 C 316.21 99.312 317.175 99.66 317.396 99.746 C 317.171 99.696 316.184 99.453 314.772 99.102 C 313.968 98.921 313.008 98.771 311.988 98.588 C 310.97 98.405 309.872 98.295 308.783 98.148 C 306.6 97.909 304.404 97.738 302.766 97.688 C 302.716 97.687 302.666 97.684 302.617 97.682 C 303.131 98.347 303.638 98.998 304.147 99.647 C 304.432 100.015 304.713 100.382 304.997 100.749 C 305.231 101.063 305.481 101.371 305.712 101.671 C 311.308 108.81 316.894 115.549 322.747 121.31 C 324.324 122.795 325.885 124.27 327.417 125.719 C 328.92 127.109 330.568 128.374 332.112 129.67 L 333.269 130.646 C 333.665 130.947 334.07 131.227 334.48 131.522 C 335.278 132.088 336.079 132.67 336.877 133.235 C 338.419 134.414 340.055 135.399 341.655 136.377 C 348.045 140.297 354.286 143.209 359.989 145.364 C 365.712 147.48 370.882 148.79 375.176 149.66 C 378.577 150.325 381.408 150.773 383.626 151.021 C 383.565 151.039 383.524 151.066 383.468 151.1 C 383.7 151.048 383.935 151.012 384.151 150.965 C 384.181 151.008 384.189 151.039 384.217 151.08 C 383.369 151.278 382.393 151.483 381.277 151.661 C 376.857 152.398 370.175 152.901 361.875 151.494 C 353.574 150.138 343.77 146.908 333.329 141.582 C 329.93 139.864 326.473 137.933 322.975 135.796 C 322.954 135.784 322.954 135.784 322.937 135.775 C 320.197 134.13 317.437 132.343 314.691 130.434 C 309.998 127.249 305.261 123.726 300.514 119.874 C 297.193 117.201 293.852 114.386 290.497 111.422 L 292.792 114.413 C 294.827 116.831 296.772 119.342 298.859 121.711 C 301.003 124.048 303.012 126.489 305.285 128.705 L 308.588 132.084 L 312.047 135.315 L 313.79 136.918 C 314.364 137.45 314.976 137.938 315.575 138.444 L 319.197 141.494 C 321.705 143.371 324.145 145.355 326.795 147.041 C 328.103 147.906 329.383 148.797 330.744 149.561 C 332.109 150.343 333.429 151.188 334.812 151.914 L 338.991 154.019 L 343.28 155.872 C 344.719 156.448 346.208 156.908 347.671 157.445 C 349.139 157.945 350.648 158.302 352.146 158.728 C 353.637 159.138 355.181 159.384 356.683 159.708 C 358.206 159.994 359.754 160.136 361.296 160.366 C 362.836 160.479 364.373 160.578 365.919 160.654 C 367.468 160.616 369.019 160.709 370.56 160.589 C 372.102 160.468 373.647 160.429 375.169 160.182 L 377.473 159.853 L 379.742 159.399 C 381.279 159.146 382.751 158.662 384.255 158.288 C 385.729 157.804 387.214 157.366 388.661 156.789 C 391.58 155.73 394.375 154.339 397.111 152.85 C 399.73 151.361 402.239 149.705 404.626 147.853 C 404.712 147.81 404.79 147.735 404.872 147.679 C 405.87 146.901 406.859 146.094 407.8 145.233 M 275.094 307.078 L 282.803 307.078 C 293.592 307.078 294.755 297.44 294.755 293.299 C 294.755 288.153 293.15 279.532 282.453 279.532 L 275.094 279.532 Z M 257.941 250.006 L 256.485 249.654 L 256.485 246.602 L 279.189 246.62 L 280.646 246.972 L 280.646 250.023 L 275.094 250.023 L 275.094 276.11 L 281.845 276.11 C 290.2 276.11 292.21 271.149 292.763 263.155 L 292.947 260.748 C 293.464 253.019 293.943 245.726 302.759 245.726 C 309.381 245.726 312.331 250.752 312.331 255.73 L 312.313 257.86 L 311.962 259.31 L 308.9 259.31 L 308.9 255.98 L 307.001 253.159 C 306.317 253.242 305.562 253.914 305.562 259.364 C 305.562 268.799 301.966 274.995 294.865 277.817 C 303.146 280.63 308.236 286.56 308.236 293.567 C 308.236 304.015 299.347 310.508 285.054 310.508 L 256.485 310.508 L 256.485 307.078 L 261.963 307.078 L 261.963 250.023 Z M 181.366 275.364 L 189.462 297.413 L 197.892 275.364 Z M 202.429 246.602 L 202.963 246.602 L 225.832 246.62 L 227.271 246.98 L 227.271 250.023 L 221.757 250.023 L 198.796 309.503 L 198.408 310.508 L 190.494 310.508 L 171.444 258.517 C 169.305 252.56 167.22 250.023 164.416 250.015 L 162.498 249.681 L 162.498 246.602 L 179.576 246.62 L 181.017 246.98 L 181.017 250.023 L 178.765 250.023 C 176.867 250.051 175.537 250.585 174.839 251.619 C 173.952 252.882 173.971 254.976 174.839 257.362 L 180.112 271.943 L 199.181 271.943 L 207.703 250.023 L 202.429 250.023 Z M 127.789 307.078 L 127.789 250.023 L 133.267 250.023 L 133.267 246.972 L 131.809 246.62 L 109.548 246.602 L 109.014 246.602 L 109.014 250.023 L 114.474 250.023 L 114.474 307.078 L 109.014 307.078 L 109.014 310.508 L 133.267 310.508 L 133.267 307.078 Z M 53.058 246.602 L 44.998 246.602 L 44.61 247.644 L 22.95 307.078 L 17.452 307.078 L 17.452 310.508 L 42.304 310.508 L 42.304 307.078 L 37.14 307.078 L 53.887 259.999 L 67.442 299.468 C 68.364 302.144 68.364 304.31 67.46 305.574 C 66.759 306.57 65.414 307.078 63.459 307.078 L 61.264 307.078 L 61.264 310.508 L 79.708 310.508 L 79.708 307.078 L 77.77 307.078 C 74.894 307.078 72.663 304.31 70.78 298.382 Z M -37.627 297.413 L -29.191 275.364 L -45.724 275.364 Z M -46.066 246.98 L -46.066 250.023 L -48.307 250.023 C -50.216 250.051 -51.543 250.585 -52.253 251.619 C -53.121 252.882 -53.112 254.976 -52.227 257.362 L -46.961 271.943 L -27.891 271.943 L -19.397 250.023 L -24.663 250.023 L -24.663 246.602 L -24.126 246.602 L -1.258 246.62 L .189 246.98 L .189 250.023 L -5.342 250.023 L -28.296 309.503 L -28.684 310.508 L -36.604 310.508 L -55.648 258.517 C -57.787 252.56 -59.852 250.023 -62.655 250.015 L -64.574 249.681 L -64.574 246.602 L -47.513 246.62 Z M -127.483 278.813 C -127.483 261.956 -120.059 250.632 -109.012 250.632 C -101.34 250.632 -96.185 255.243 -95.225 262.961 L -95.042 264.354 L -91.538 264.354 L -91.731 262.601 C -92.958 252.034 -100.878 245.726 -112.914 245.726 C -129.78 245.726 -141.564 259.077 -141.564 278.205 C -141.564 297.422 -128.858 311.374 -111.354 311.374 C -106.882 311.374 -104.087 310.294 -101.847 309.419 C -100.29 308.82 -98.98 308.304 -97.438 308.256 L -95.743 310.055 L -95.678 311.374 L -92.34 311.374 L -92.34 289.722 L -95.484 289.722 L -95.725 291.023 C -97.882 302.761 -102.401 307.779 -110.838 307.779 C -125.315 307.779 -127.483 289.63 -127.483 278.813 M 408.487 406.725 L 408.429 405.643 C 407.89 395.574 399.812 379.607 380.392 379.607 C 366.793 379.607 357.077 389.128 354.243 405.133 C 347.874 392.617 333.356 379.607 311.044 379.607 C 284.347 379.607 269.637 398.466 269.637 432.715 L 269.637 522.76 L 252.643 522.76 L 252.643 528.145 L 300.36 528.145 L 300.36 412.939 C 300.36 397.134 308.402 388.781 323.604 388.781 C 340.479 388.781 353.204 403.544 353.204 423.126 L 353.457 522.76 L 337.312 522.76 L 337.312 528.145 L 383.642 528.145 L 383.642 406.258 C 383.642 397.51 387.061 393.077 393.812 393.077 C 399.787 393.077 404.137 398.281 404.39 405.73 L 404.423 406.725 Z M 146.919 381.275 L 83.605 381.275 L 83.605 386.026 L 100.587 386.026 L 100.587 576.514 L 83.605 576.514 L 83.605 581.892 L 131.049 581.892 L 131.049 442.341 L 182.22 498.771 L 184.49 501.156 C 185.637 502.38 186.617 503.415 187.454 504.273 C 191.971 509.006 193.92 511.008 195.818 512.854 C 197.359 514.617 199.154 516.356 201.257 518.142 L 201.698 518.579 L 201.76 518.536 C 213.11 527.917 226.747 530.899 238.278 526.436 C 243.226 524.529 247.528 519.422 249.608 515.209 C 251.581 511.224 251.604 505.882 249.692 500.91 C 247.861 496.19 244.542 492.539 240.322 490.639 C 236.295 488.829 231.622 488.696 227.344 490.357 C 222.527 492.21 219.1 495.496 217.413 499.853 C 215.907 503.791 215.969 508.247 217.568 512.401 C 218.943 515.944 221.225 518.243 222.6 519.618 L 223.366 520.454 L 223.413 520.945 L 222.958 521.291 C 219.277 522.629 207.555 519.737 198.257 509.108 L 197.648 508.416 L 197.648 508.499 C 196.49 507.32 195.426 506.173 193.92 504.548 L 193.454 504.052 C 191.864 502.321 189.246 499.499 184.945 494.942 L 184.778 494.75 L 169.456 477.618 L 218.644 386.026 L 232.697 386.026 L 232.697 381.275 L 167.437 381.275 L 167.437 386.026 L 184.287 386.026 L 147.36 454.06 L 131.049 435.667 L 131.049 386.026 L 146.919 386.026 Z M 21.25 473.908 L 21.25 419.367 C 21.25 404.142 10.321 393.095 -4.743 393.095 C -20.022 393.095 -28.788 401.752 -28.788 416.84 C -28.788 439.438 -15.271 447.575 -.954 456.192 C 7.125 461.056 15.466 466.076 21.25 473.908 M -18.151 457.292 C -38.628 450.499 -59.797 443.464 -59.797 416.96 C -59.797 393.406 -40.019 379.328 -20.894 379.328 C 5.207 379.328 18.257 397.855 22.264 404.901 C 25.127 387.884 34.066 379.607 49.571 379.607 C 67.127 379.607 75.827 393.1 76.483 405.636 L 76.555 406.725 L 71.93 406.725 L 71.872 405.762 C 71.13 395.281 66.146 393.077 62.096 393.077 C 55.212 393.077 51.423 397.558 51.423 405.697 L 51.423 476.89 C 51.423 510.841 30.946 531.108 -3.35 531.108 C -22.824 531.108 -34.713 524.541 -41.256 519.027 C -49.501 512.09 -54.23 502.619 -54.23 493.042 C -54.23 481.479 -46.396 472.073 -36.769 472.073 C -26.66 472.073 -19.035 479.34 -19.035 488.971 C -19.035 500.067 -27.539 505.869 -35.939 505.869 C -39.704 505.869 -42.649 504.562 -44.412 503.784 L -45.32 503.419 L -46.044 504.149 C -45.828 509.579 -33.07 525.271 -10.03 525.271 C 13.208 525.271 24.034 516.871 24.034 498.836 C 24.034 471.291 2.589 464.175 -18.151 457.292 M -182.504 385.278 L -182.504 479.59 L -153.729 479.59 C -126.593 479.59 -111.03 462.507 -111.03 432.715 C -111.03 402.122 -126.69 385.278 -155.126 385.278 Z M -182.504 576.514 L -159.021 576.514 C -125.261 576.514 -120.219 546.794 -120.219 529.078 C -120.219 498.489 -132.444 484.849 -159.857 484.849 L -182.504 484.849 Z M -75.841 433.826 C -75.841 447.194 -81.082 458.714 -90.994 467.15 C -100.404 475.157 -113.874 480.242 -130.048 481.914 C -102.041 488.16 -84.751 506.498 -84.751 530.189 C -84.751 545.498 -90.81 558.433 -102.269 567.611 C -113.939 576.956 -130.675 581.892 -150.667 581.892 L -234.129 581.892 L -234.129 576.514 L -216.58 576.514 L -216.58 385.278 L -234.129 385.278 L -234.129 380.899 L -150.388 380.899 C -106.495 380.899 -75.841 402.667 -75.841 433.826 " fill="#d7b46c"/>
</g>
</g>
</g>
</svg>
